<svg width="20" height="20" viewBox="0 0 20 20" fill="none" xmlns="http://www.w3.org/2000/svg">
<path d="M17.5758 5.85023C16.8675 5.08764 15.6842 4.70634 13.9675 4.70634H13.7675V4.67389C13.7675 3.31097 13.7675 1.62354 10.6342 1.62354H9.36751C6.23418 1.62354 6.23418 3.31908 6.23418 4.67389V4.71445H6.03418C4.30918 4.71445 3.13418 5.09575 2.42585 5.85834C1.60085 6.75073 1.62584 7.9514 1.70918 8.77078L1.71751 8.82757L1.80085 9.6794C1.80918 9.68751 1.82585 9.70373 1.84251 9.71185C2.11751 9.89032 2.40084 10.0688 2.70085 10.2311C2.81751 10.3041 2.94251 10.369 3.06751 10.4339C4.49251 11.1965 6.05918 11.7076 7.65085 11.9591C7.72584 12.7216 8.06751 13.614 9.89251 13.614C11.7175 13.614 12.0758 12.7298 12.1342 11.9428C13.8342 11.6751 15.4758 11.0991 16.9592 10.2554C17.0092 10.2311 17.0425 10.2067 17.0842 10.1824C17.4675 9.97145 17.8258 9.7443 18.1758 9.49281C18.1925 9.48469 18.2092 9.46847 18.2175 9.45224L18.2508 9.16019L18.2925 8.77889C18.3008 8.73022 18.3008 8.68965 18.3092 8.63286C18.3758 7.81349 18.3592 6.69394 17.5758 5.85023ZM10.9092 11.4074C10.9092 12.2673 10.9092 12.3971 9.88418 12.3971C8.85918 12.3971 8.85918 12.243 8.85918 11.4155V10.3933H10.9092V11.4074ZM7.42584 4.70634V4.67389C7.42584 3.29474 7.42584 2.78364 9.36751 2.78364H10.6342C12.5758 2.78364 12.5758 3.30285 12.5758 4.67389V4.71445H7.42584V4.70634Z" fill="#6576FF"/>
<path opacity="0.4" d="M17.0841 10.1662C17.0424 10.1905 17.0008 10.2149 16.9591 10.2392C15.4758 11.0829 13.8341 11.6508 12.1341 11.9266C12.0674 12.7054 11.7174 13.5978 9.89245 13.5978C8.06745 13.5978 7.71745 12.7135 7.65078 11.9428C6.05912 11.6995 4.49245 11.1884 3.06745 10.4177C2.94245 10.3528 2.81745 10.2879 2.70078 10.2148C2.40078 10.0526 2.11745 9.87412 1.84245 9.69564C1.82578 9.68753 1.80911 9.6713 1.80078 9.66319L2.30911 14.9445C2.48411 16.5589 3.16745 18.222 6.83412 18.222H13.1841C16.8508 18.222 17.5341 16.5589 17.7091 14.9364L18.2341 9.43604C18.2258 9.45226 18.2091 9.46849 18.1924 9.4766C17.8341 9.72809 17.4675 9.96336 17.0841 10.1662Z" fill="#6576FF"/>
</svg>
