<svg width="135" height="182" viewBox="0 0 135 182" fill="none" xmlns="http://www.w3.org/2000/svg">
<g opacity="0.2">
<path d="M67.4463 181.989C92.2444 181.989 112.347 178.547 112.347 174.302C112.347 170.056 92.2444 166.615 67.4463 166.615C42.6482 166.615 22.5454 170.056 22.5454 174.302C22.5454 178.547 42.6482 181.989 67.4463 181.989Z" fill="#9195B9"/>
</g>
<path d="M42.8137 132.792C40.8805 137.6 36.9312 150.167 39.149 164.312C34.073 166.004 34.0849 169.458 35.425 171.613C37.459 174.884 48.0023 174.243 50.8545 174.243C64.9083 174.243 58.0119 152.921 65.9579 141.625" fill="#C4BFC2"/>
<path d="M47.2078 175.317C41.3965 175.317 36.1842 174.783 34.5475 172.159C33.6047 170.645 33.3794 168.906 33.9249 167.393C34.3341 166.247 35.3837 164.715 38.0047 163.641C35.9114 148.795 40.4062 136.021 41.8591 132.412C42.0725 131.884 42.6715 131.628 43.1992 131.842C43.727 132.056 43.982 132.655 43.7685 133.184C42.3394 136.739 37.8623 149.478 40.1631 164.157L40.2995 165.018L39.4693 165.297C37.5362 165.944 36.2909 166.912 35.864 168.099C35.3955 169.405 36.0122 170.616 36.2968 171.079C37.7912 173.471 46.6504 173.299 49.562 173.239C50.0779 173.228 50.5167 173.222 50.8547 173.222C57.9409 173.222 59.026 167.47 60.2061 158.091C60.9295 152.345 61.7478 145.827 65.116 141.043C65.4421 140.58 66.0885 140.467 66.551 140.794C67.0135 141.12 67.1262 141.767 66.8001 142.23C63.7284 146.593 62.9753 152.57 62.2519 158.346C61.7063 162.673 61.1904 166.763 59.708 169.862C57.9586 173.507 55.0649 175.281 50.8606 175.281C50.5345 175.281 50.1134 175.287 49.6094 175.299C48.797 175.305 47.9965 175.317 47.2078 175.317Z" fill="#6B184E"/>
<path d="M65.9579 141.625C62.5186 146.516 61.8604 153.283 61.0777 159.391C60.0577 167.387 58.8243 174.243 50.8546 174.243C48.0023 174.243 37.4649 174.884 35.4251 171.613C34.7372 170.509 34.3992 169.061 34.9151 167.683C35.4073 166.378 36.6703 165.137 39.1431 164.312C38.9593 163.154 38.8229 162.009 38.7161 160.881C38.052 153.621 38.9 146.937 40.08 141.714C40.9695 137.784 42.0428 134.686 42.8018 132.792L65.9579 141.625Z" fill="#EAECFF"/>
<g opacity="0.2">
<path d="M65.9579 141.625C62.5186 146.516 61.8604 153.283 61.0777 159.391C60.0577 167.387 58.8243 174.243 50.8546 174.243C48.0023 174.243 37.4649 174.884 35.4251 171.613C34.7372 170.509 34.3992 169.061 34.9151 167.683C35.8817 168.455 38.0224 169.387 42.784 169.915C52.8767 171.037 56.2092 167.749 56.2092 160.388C56.2092 153.782 44.6875 152.185 40.0919 141.714C40.9814 137.784 42.0547 134.686 42.8137 132.792L65.9579 141.625Z" fill="#9195B9"/>
</g>
<path d="M61.0776 159.391C60.0576 167.387 58.8242 174.243 50.8545 174.243C48.0022 174.243 37.4649 174.884 35.425 171.613C34.9328 170.818 34.6185 169.85 34.6719 168.859C34.6719 168.817 34.6778 168.776 34.6838 168.734C34.6956 168.574 34.7253 168.408 34.7549 168.248C34.7608 168.206 34.7727 168.17 34.7846 168.129C34.8024 168.058 34.8201 167.986 34.8439 167.915C34.8557 167.874 34.8676 167.826 34.8854 167.785C34.8972 167.749 34.9032 167.719 34.921 167.69C35.8875 168.461 38.0282 169.393 42.7899 169.921C52.3014 170.984 55.8059 168.123 56.1795 161.629C58.1482 161.136 59.8442 160.4 61.0776 159.391Z" fill="#E8E8E8"/>
<path d="M61.0777 159.391C60.0577 167.387 58.8243 174.243 50.8546 174.243C48.0023 174.243 37.4649 174.884 35.4251 171.613C34.0849 169.458 34.0671 166.01 39.149 164.312C38.9652 163.155 38.8288 162.009 38.7221 160.881C46.336 163.16 56.6836 162.988 61.0777 159.391Z" fill="white"/>
<g opacity="0.2">
<path d="M61.0776 159.391C60.0576 167.387 58.8242 174.243 50.8545 174.243C48.0022 174.243 37.4649 174.884 35.425 171.613C34.9328 170.818 34.6185 169.85 34.6719 168.859C34.6719 168.817 34.6778 168.776 34.6838 168.734C34.6956 168.574 34.7253 168.408 34.7549 168.248C34.7608 168.206 34.7727 168.17 34.7846 168.129C34.8024 168.058 34.8201 167.986 34.8439 167.915C34.8557 167.874 34.8676 167.826 34.8854 167.785C34.8972 167.749 34.9032 167.719 34.921 167.69C35.8875 168.461 38.0282 169.393 42.7899 169.921C52.3014 170.984 55.8059 168.123 56.1795 161.629C58.1482 161.136 59.8442 160.4 61.0776 159.391Z" fill="#9195B9"/>
</g>
<path d="M47.2076 175.281C41.4082 175.281 36.2018 174.747 34.577 172.135C33.6401 170.628 33.4148 168.9 33.9544 167.398C34.3635 166.259 35.4131 164.727 38.0401 163.653C35.9409 148.801 40.4357 136.027 41.8885 132.412C42.0961 131.901 42.6772 131.652 43.1872 131.86C43.6972 132.068 43.9462 132.649 43.7387 133.16C42.3096 136.716 37.8266 149.466 40.1333 164.152L40.2638 164.988L39.4632 165.256C37.5182 165.903 36.267 166.876 35.8342 168.075C35.3598 169.393 35.9824 170.616 36.273 171.079C37.7732 173.489 46.3419 173.323 49.5618 173.257C50.0777 173.245 50.5165 173.239 50.8545 173.239C57.9703 173.239 59.0555 167.482 60.2355 158.079C60.959 152.333 61.7773 145.827 65.1395 141.043C65.4598 140.592 66.0765 140.485 66.5271 140.799C66.9778 141.114 67.0845 141.737 66.7703 142.188C63.6927 146.563 62.9455 152.541 62.2161 158.322C61.6706 162.65 61.1606 166.734 59.6722 169.832C57.9288 173.465 55.041 175.234 50.8545 175.234C50.5284 175.234 50.1073 175.24 49.6033 175.252C48.7968 175.275 47.9963 175.281 47.2076 175.281Z" fill="#6B184E"/>
<path d="M47.273 168.728C47.2256 168.811 47.1307 168.942 47.0714 169.055C47.0062 169.173 46.941 169.286 46.8935 169.411C46.7868 169.648 46.7097 169.897 46.6623 170.153C46.5555 170.669 46.5377 171.191 46.6623 171.702C46.7749 172.206 46.9943 172.687 47.2968 173.038C47.5992 173.388 47.9431 173.572 48.3582 173.607L48.4056 173.613C48.8207 173.643 49.1291 174.005 49.0935 174.415C49.0639 174.783 48.7733 175.074 48.4175 175.103C47.9846 175.145 47.5162 175.074 47.1129 174.89C46.7038 174.711 46.3539 174.438 46.0752 174.124C45.5178 173.501 45.2213 172.753 45.0968 171.993C44.9782 171.239 45.0375 170.438 45.3162 169.719C45.4585 169.357 45.6661 169.019 45.9329 168.728C46.0693 168.586 46.2116 168.455 46.3717 168.342C46.4488 168.283 46.5377 168.235 46.6267 168.188C46.7156 168.14 46.7987 168.111 46.9232 168.063C47.107 167.992 47.3146 168.087 47.3857 168.277C47.4213 168.378 47.4094 168.485 47.362 168.574L47.273 168.728Z" fill="#6B184E"/>
<path d="M40.3407 167.719C40.1687 167.914 39.9671 168.158 39.8426 168.389C39.7062 168.627 39.6054 168.87 39.5401 169.119C39.4156 169.6 39.386 170.218 39.4749 170.781C39.5579 171.351 39.7418 171.903 40.0145 172.355C40.2873 172.812 40.6431 173.132 41.0404 173.263L41.0878 173.281C41.4792 173.411 41.6868 173.839 41.5563 174.23C41.4377 174.586 41.076 174.788 40.7202 174.729C40.2636 174.652 39.8248 174.45 39.4749 174.171C39.1191 173.898 38.8464 173.565 38.621 173.215C38.1822 172.509 37.9628 171.737 37.8916 170.96C37.8561 170.568 37.862 170.176 37.9094 169.79C37.9509 169.41 38.0458 168.995 38.2178 168.609C38.3957 168.229 38.6507 167.879 38.959 167.606C39.1191 167.475 39.2792 167.351 39.4571 167.256C39.641 167.155 39.807 167.089 40.0442 167.03C40.2458 166.982 40.4474 167.101 40.4949 167.303C40.5245 167.428 40.4949 167.546 40.4178 167.635L40.3407 167.719Z" fill="#6B184E"/>
<path d="M47.2078 175.317C41.3965 175.317 36.1842 174.783 34.5475 172.159C33.6047 170.645 33.3794 168.906 33.9249 167.393C34.3341 166.247 35.3837 164.715 38.0047 163.641C35.9114 148.795 40.4062 136.021 41.8591 132.412C42.0725 131.884 42.6715 131.628 43.1992 131.842C43.727 132.056 43.982 132.655 43.7685 133.184C42.3394 136.739 37.8623 149.478 40.1631 164.157L40.2995 165.018L39.4693 165.297C37.5362 165.944 36.2909 166.912 35.864 168.099C35.3955 169.405 36.0122 170.616 36.2968 171.079C37.7912 173.471 46.6504 173.299 49.562 173.239C50.0779 173.228 50.5167 173.222 50.8547 173.222C57.9409 173.222 59.026 167.47 60.2061 158.091C60.9295 152.345 61.7478 145.827 65.116 141.043C65.4421 140.58 66.0885 140.467 66.551 140.794C67.0135 141.12 67.1262 141.767 66.8001 142.23C63.7284 146.593 62.9753 152.57 62.2519 158.346C61.7063 162.673 61.1904 166.763 59.708 169.862C57.9586 173.507 55.0649 175.281 50.8606 175.281C50.5345 175.281 50.1134 175.287 49.6094 175.299C48.797 175.305 47.9965 175.317 47.2078 175.317Z" fill="#9195B9"/>
<path d="M47.273 168.728C47.2256 168.811 47.1307 168.942 47.0714 169.055C47.0062 169.173 46.941 169.286 46.8935 169.411C46.7868 169.648 46.7097 169.897 46.6623 170.153C46.5555 170.669 46.5377 171.191 46.6623 171.702C46.7749 172.206 46.9943 172.687 47.2968 173.038C47.5992 173.388 47.9431 173.572 48.3582 173.607L48.4056 173.613C48.8207 173.643 49.1291 174.005 49.0935 174.415C49.0639 174.783 48.7733 175.074 48.4175 175.103C47.9846 175.145 47.5162 175.074 47.1129 174.89C46.7038 174.711 46.3539 174.438 46.0752 174.124C45.5178 173.501 45.2213 172.753 45.0968 171.993C44.9782 171.239 45.0375 170.438 45.3162 169.719C45.4585 169.357 45.6661 169.019 45.9329 168.728C46.0693 168.586 46.2116 168.455 46.3717 168.342C46.4488 168.283 46.5377 168.235 46.6267 168.188C46.7156 168.14 46.7987 168.111 46.9232 168.063C47.107 167.992 47.3146 168.087 47.3857 168.277C47.4213 168.378 47.4094 168.485 47.362 168.574L47.273 168.728Z" fill="#9195B9"/>
<path d="M40.3407 167.719C40.1687 167.914 39.9671 168.158 39.8426 168.389C39.7062 168.627 39.6054 168.87 39.5401 169.119C39.4156 169.6 39.386 170.218 39.4749 170.781C39.5579 171.351 39.7418 171.903 40.0145 172.355C40.2873 172.812 40.6431 173.132 41.0404 173.263L41.0878 173.281C41.4792 173.411 41.6868 173.839 41.5563 174.23C41.4377 174.586 41.076 174.788 40.7202 174.729C40.2636 174.652 39.8248 174.45 39.4749 174.171C39.1191 173.898 38.8464 173.565 38.621 173.215C38.1822 172.509 37.9628 171.737 37.8916 170.96C37.8561 170.568 37.862 170.176 37.9094 169.79C37.9509 169.41 38.0458 168.995 38.2178 168.609C38.3957 168.229 38.6507 167.879 38.959 167.606C39.1191 167.475 39.2792 167.351 39.4571 167.256C39.641 167.155 39.807 167.089 40.0442 167.03C40.2458 166.982 40.4474 167.101 40.4949 167.303C40.5245 167.428 40.4949 167.546 40.4178 167.635L40.3407 167.719Z" fill="#9195B9"/>
<path d="M83.706 81.7485C83.706 81.7485 87.8806 97.2592 89.5884 106.881C91.0294 115.002 96.0519 132.168 86.3981 143.275C76.2462 154.957 46.419 153.544 41.1414 137.606C35.9053 121.781 54.2464 97.3541 50.979 83.5234" fill="#EAECFF"/>
<g opacity="0.2">
<path d="M83.706 81.7485C83.706 81.7485 87.8806 97.2592 89.5884 106.881C91.0294 115.002 96.0519 132.168 86.3981 143.275C76.2462 154.957 46.419 153.544 41.1414 137.606C35.9053 121.781 54.2464 97.3541 50.979 83.5234" fill="#9195B9"/>
</g>
<path d="M65.5845 151.995C63.005 151.995 60.4256 151.746 57.9469 151.247C48.8445 149.419 42.3632 144.563 40.1632 137.921C37.2457 129.112 41.2365 118.071 45.0969 107.392C48.3524 98.3873 51.424 89.8811 49.9771 83.7552C49.8467 83.2032 50.1906 82.6452 50.7421 82.5146C51.2936 82.384 51.851 82.7283 51.9814 83.2803C53.5706 90.0117 50.3982 98.7969 47.0359 108.099C43.2942 118.445 39.4279 129.147 42.1201 137.28C44.0769 143.198 49.9949 147.555 58.3501 149.229C68.9586 151.36 80.427 148.57 85.6156 142.598C93.8225 133.154 90.9169 118.801 89.1854 110.23C88.9541 109.09 88.7347 108.01 88.5687 107.06C86.8905 97.5919 82.7456 82.1703 82.704 82.016C82.5558 81.4639 82.8819 80.9 83.4334 80.7516C83.9849 80.6032 84.5482 80.9297 84.6965 81.4817C84.738 81.6361 88.9067 97.1467 90.6026 106.704C90.7687 107.63 90.9821 108.692 91.2134 109.826C93.022 118.771 96.0522 133.748 87.1811 143.958C84.2814 147.294 79.8044 149.745 74.2362 151.039C71.461 151.674 68.5257 151.995 65.5845 151.995Z" fill="#9195B9"/>
<path d="M86.8726 141.714C100.268 149.395 112.988 142.384 114.915 131.765C115.294 129.682 115.253 127.456 114.719 125.176C114.411 123.841 113.925 122.487 113.26 121.122C112.673 119.917 112.069 118.718 111.481 117.507C109.436 113.292 107.603 109.09 107.277 105.172C107.123 103.308 107.307 101.51 107.977 99.8059C108.333 98.9036 108.902 98.126 109.602 97.5087C110.432 96.7786 111.446 96.2681 112.495 96.0484C112.964 95.9475 113.438 95.906 113.901 95.9297C116.919 96.0603 119.653 98.7908 118.55 105.599C117.002 115.168 127.397 118.166 131.216 109.956C131.382 109.594 131.536 109.208 131.679 108.805C131.726 108.662 131.773 108.52 131.821 108.377C134.205 100.738 131.317 87.5007 119.522 84.7286C118.983 84.598 118.419 84.4971 117.838 84.414C117.044 84.3012 116.261 84.2359 115.49 84.2181C114.067 84.1765 112.697 84.2953 111.393 84.5505C101.81 86.4263 95.7792 95.8704 98.8034 107.713C100.428 114.07 106.993 126.055 104.211 131.842C103.334 133.676 100.63 135.101 97.4336 134.953C97.3506 134.953 97.2676 134.947 97.1846 134.941C94.8779 134.775 92.328 133.783 90.0332 131.545L86.8726 141.714Z" fill="#EAECFF"/>
<g opacity="0.2">
<path d="M86.8726 141.714C100.268 149.395 112.988 142.379 114.915 131.765C113.296 137.125 104.544 140.592 97.4396 134.947C97.3566 134.947 97.2735 134.941 97.1905 134.935C94.8838 134.769 92.334 133.777 90.0391 131.54L86.8726 141.714Z" fill="#9195B9"/>
</g>
<g opacity="0.2">
<path d="M103.779 101.948C104.366 109.078 109.276 115.12 111.482 117.507C109.436 113.298 107.604 109.089 107.277 105.172C107.123 103.308 107.307 101.509 107.977 99.8055C108.327 98.9033 108.902 98.1257 109.602 97.5083C110.806 96.4458 112.389 95.8581 113.907 95.9234C116.925 96.054 119.659 98.7846 118.556 105.593C117.008 115.162 127.403 118.154 131.222 109.95C131.388 109.588 131.542 109.202 131.685 108.799C129.763 110.241 124.96 112.722 122.304 109.76C118.562 105.593 123.662 98.6362 118.74 93.5075C114.992 89.6016 103.014 92.7002 103.779 101.948Z" fill="#9195B9"/>
</g>
<path d="M111.304 92.5464C111.398 92.6474 112.614 92.3268 112.578 92.4633C112.436 93.0451 112.175 94.2204 112.501 96.0427C112.507 96.0427 112.513 96.0427 112.519 96.0427C112.608 96.019 112.697 96.0012 112.792 95.9893C112.869 95.9774 112.952 95.9655 113.029 95.9537C113.094 95.9477 113.16 95.9418 113.225 95.9359C113.284 95.9299 113.343 95.924 113.403 95.924C113.569 95.9121 113.741 95.9121 113.907 95.924C116.925 96.0546 119.659 98.7851 118.556 105.594C117.008 115.162 127.403 118.16 131.222 109.951C131.388 109.589 131.542 109.203 131.684 108.799C129.763 110.242 124.96 112.723 122.298 109.761C118.556 105.594 123.655 98.6308 118.734 93.5081C117.168 91.8816 114.174 91.4661 111.268 92.214C111.238 92.3684 111.238 92.4811 111.304 92.5464Z" fill="#686868"/>
<path d="M112.501 96.0423C112.97 95.9414 113.444 95.8998 113.907 95.9235C116.925 96.0541 119.659 98.7847 118.556 105.593C117.008 115.162 127.403 118.16 131.222 109.95C131.388 109.588 131.542 109.202 131.684 108.799C131.732 108.656 131.779 108.514 131.827 108.371C134.21 100.732 131.323 87.4945 119.528 84.7224C118.988 84.5918 118.425 84.4909 117.844 84.4078C117.049 84.295 116.267 84.2297 115.496 84.2119C114.719 84.6987 112.774 86.5982 112.234 88.5808C112.169 88.8242 113.408 88.3493 113.314 88.6105C112.987 89.489 110.894 92.1186 111.297 92.546C111.392 92.6469 112.608 92.3264 112.572 92.4629C112.436 93.0446 112.169 94.2199 112.501 96.0423Z" fill="white"/>
<g opacity="0.15">
<path d="M111.304 92.5464C111.398 92.6474 112.614 92.3268 112.578 92.4633C112.436 93.0451 112.175 94.2204 112.501 96.0427C112.507 96.0427 112.513 96.0427 112.519 96.0427C112.608 96.0249 112.697 96.0071 112.792 95.9893C112.869 95.9774 112.952 95.9655 113.029 95.9537C113.094 95.9477 113.16 95.9418 113.225 95.9359C113.284 95.9299 113.343 95.924 113.403 95.924C113.569 95.9121 113.741 95.9121 113.907 95.924C116.925 96.0546 119.659 98.7851 118.556 105.594C117.008 115.162 127.403 118.16 131.222 109.951C131.388 109.589 131.542 109.203 131.684 108.799C129.763 110.242 124.96 112.723 122.298 109.761C118.556 105.594 123.655 98.6308 118.734 93.5081C117.168 91.8816 114.174 91.4661 111.268 92.214C111.238 92.3684 111.238 92.4811 111.304 92.5464Z" fill="#9195B9"/>
</g>
<path d="M98.3112 145.964C94.3975 145.964 90.2821 144.854 86.3625 142.604C85.8703 142.319 85.6983 141.69 85.983 141.197C86.2676 140.705 86.8962 140.533 87.3884 140.817C95.2454 145.323 103.927 144.854 109.501 139.618C114.44 134.976 115.526 128.067 112.341 121.579C112.122 121.128 111.896 120.677 111.671 120.22C108.167 113.126 104.538 105.789 107.022 99.4261C108.285 96.1969 112.063 94.2143 115.277 95.0928C116.629 95.4608 120.945 97.3247 119.582 105.76C118.834 110.39 121.088 112.806 123.24 113.471C125.511 114.171 128.571 113.215 130.291 109.517C132.052 105.73 132.248 98.969 129.212 93.3714C127.522 90.255 124.148 86.3432 117.702 85.435C111.944 84.6218 106.637 86.4026 103.144 90.3084C99.3311 94.5704 98.1155 100.821 99.8114 107.451C100.262 109.214 101.128 111.488 102.047 113.898C104.52 120.392 107.325 127.746 105.148 132.276C104.312 134.021 102.231 135.38 99.7284 135.825C96.0875 136.472 92.2924 135.178 89.3156 132.276C88.9064 131.878 88.9005 131.225 89.2978 130.815C89.6951 130.406 90.3474 130.4 90.7565 130.798C93.253 133.231 96.3899 134.324 99.3726 133.795C101.205 133.469 102.747 132.525 103.292 131.385C105.083 127.657 102.332 120.433 100.12 114.634C99.1769 112.165 98.2875 109.838 97.8131 107.962C95.9452 100.649 97.3327 93.7097 101.608 88.9313C105.569 84.5031 111.541 82.4848 117.986 83.393C125.28 84.42 129.099 88.8482 131.02 92.386C134.033 97.9421 134.501 105.344 132.159 110.384C129.911 115.21 125.755 116.403 122.63 115.441C119.445 114.462 116.64 110.989 117.542 105.427C118.277 100.886 117.227 97.764 114.731 97.0814C112.525 96.4759 109.821 97.9243 108.943 100.174C106.791 105.683 110.212 112.604 113.521 119.3C113.747 119.757 113.972 120.208 114.191 120.665C117.737 127.889 116.451 135.914 110.912 141.12C107.485 144.337 103.049 145.964 98.3112 145.964Z" fill="#9195B9"/>
<path d="M99.0703 172.343C97.066 175.631 85.7399 175.162 82.8936 174.973C77.023 174.581 73.7912 167.268 72.0182 160.388C70.4824 154.428 70.0436 148.789 69.9309 148.267L86.8962 86.7524C99.8589 127.331 95.3404 135.641 93.7927 145.127C93.6681 145.91 93.6622 147.163 93.7393 148.712C93.9172 152.244 94.528 157.319 95.0913 161.86C95.2158 162.863 95.3404 163.849 95.453 164.781C98.1452 165.653 99.4557 167.196 99.7759 168.841C100.007 170.028 99.7225 171.274 99.0703 172.343Z" fill="#EAECFF"/>
<g opacity="0.2">
<path d="M99.0703 172.343C97.066 175.631 85.7399 175.162 82.8936 174.973C77.023 174.581 73.7912 167.268 72.0182 160.388C70.4824 154.428 70.0436 148.789 69.9309 148.267L86.8962 86.7524C99.8589 127.331 95.3404 135.641 93.7927 145.127C93.6681 145.91 93.6622 147.163 93.7393 148.712C86.8666 146.961 78.3869 149.917 78.5944 157.752C78.7664 164.217 81.1028 170.616 87.2224 171.589C92.7727 172.473 97.6412 171.132 99.7759 168.841C100.007 170.028 99.7225 171.274 99.0703 172.343Z" fill="#9195B9"/>
</g>
<path d="M99.8532 169.672C99.8532 169.808 99.8472 169.939 99.8354 170.07C99.8294 170.147 99.8235 170.224 99.8117 170.301C99.8057 170.349 99.7998 170.396 99.7939 170.444C99.7879 170.479 99.782 170.509 99.7761 170.545C99.7524 170.681 99.7168 170.818 99.6812 170.96C99.6634 171.031 99.6397 171.102 99.616 171.168C99.61 171.186 99.6041 171.203 99.5982 171.221C99.5389 171.387 99.4796 171.554 99.4025 171.714C99.3966 171.732 99.3847 171.75 99.3788 171.767C99.3373 171.856 99.2898 171.945 99.2424 172.034C99.1831 172.141 99.1238 172.242 99.0645 172.349C97.0602 175.638 85.7342 175.169 82.8878 174.979C77.0173 174.587 73.7855 167.274 72.0125 160.394C73.3289 161.053 75.5882 161.896 79.1164 162.365C80.1126 167.001 82.5735 170.853 87.2166 171.595C92.767 172.48 97.6354 171.138 99.7701 168.847C99.782 168.918 99.7939 168.989 99.8057 169.061C99.8176 169.132 99.8235 169.197 99.8294 169.274C99.8354 169.345 99.8413 169.411 99.8472 169.488C99.8532 169.535 99.8532 169.607 99.8532 169.672Z" fill="#686868"/>
<path d="M99.0701 172.343C97.0658 175.632 85.7398 175.163 82.8934 174.973C77.0229 174.581 73.7911 167.268 72.0181 160.388C74.7339 161.753 81.4821 163.896 95.0912 161.854C95.2157 162.858 95.3402 163.843 95.4529 164.775C100.102 166.277 100.624 169.797 99.0701 172.343Z" fill="white"/>
<g opacity="0.2">
<path d="M99.8532 169.672C99.8532 169.808 99.8472 169.939 99.8354 170.07C99.8294 170.147 99.8176 170.224 99.8117 170.301C99.8057 170.349 99.7998 170.396 99.7939 170.444C99.7879 170.479 99.782 170.509 99.7761 170.545C99.7524 170.681 99.7168 170.818 99.6812 170.96C99.6634 171.031 99.6397 171.097 99.616 171.168C99.61 171.186 99.6041 171.203 99.5982 171.221C99.5389 171.387 99.4796 171.554 99.4025 171.714C99.3966 171.732 99.3847 171.75 99.3788 171.767C99.3373 171.856 99.2898 171.945 99.2424 172.034C99.1831 172.141 99.1238 172.242 99.0645 172.349C97.0602 175.638 85.7342 175.169 82.8878 174.979C77.0173 174.587 73.7855 167.274 72.0125 160.394C73.3289 161.053 75.5882 161.896 79.1164 162.365C80.1126 167.001 82.5735 170.853 87.2166 171.595C92.767 172.48 97.6354 171.138 99.7701 168.847C99.782 168.918 99.7939 168.989 99.8057 169.061C99.8176 169.132 99.8235 169.197 99.8294 169.274C99.8354 169.345 99.8413 169.411 99.8472 169.488C99.8532 169.535 99.8532 169.607 99.8532 169.672Z" fill="#9195B9"/>
</g>
<path d="M87.8747 86.4321C89.8731 92.7539 91.7529 99.1232 93.3243 105.581C94.107 108.811 94.8127 112.064 95.3938 115.346C95.9749 118.629 96.4315 121.941 96.6628 125.289C96.8941 128.631 96.9 132.014 96.5264 135.374C96.3485 137.054 96.0698 138.716 95.7555 140.354C95.4412 141.993 95.0914 143.601 94.8305 145.198C94.7178 145.887 94.7178 146.682 94.7297 147.483C94.7474 148.285 94.789 149.098 94.8483 149.911C94.9609 151.538 95.121 153.176 95.293 154.814C95.6429 158.091 96.052 161.368 96.4493 164.65L95.7674 163.819C97.0186 164.229 98.2876 164.84 99.3075 165.885C99.8116 166.401 100.239 167.036 100.511 167.737C100.784 168.437 100.909 169.203 100.867 169.945C100.831 170.687 100.648 171.405 100.363 172.07C100.292 172.236 100.215 172.397 100.126 172.557C100.037 172.717 99.9657 172.854 99.8293 173.05C99.5803 173.406 99.2838 173.691 98.9814 173.922C98.3706 174.385 97.7302 174.676 97.1016 174.913C96.473 175.145 95.8385 175.317 95.2159 175.454C93.9588 175.727 92.7135 175.881 91.4682 175.982C90.223 176.083 88.9836 176.136 87.7502 176.148C86.5109 176.16 85.2834 176.142 84.044 176.095C83.4214 176.065 82.8343 176.053 82.1109 175.952C81.423 175.851 80.7411 175.655 80.1007 175.376C78.8198 174.824 77.7169 173.97 76.8037 173.014C75.8845 172.052 75.1433 170.978 74.497 169.874C73.2161 167.654 72.3148 165.297 71.615 162.911C71.2593 161.718 70.9568 160.513 70.6841 159.308C70.5477 158.702 70.4172 158.097 70.2986 157.491C70.186 156.886 70.0792 156.275 69.9843 155.669C69.8005 154.452 69.6582 153.223 69.5633 152.001C69.5218 151.389 69.4803 150.772 69.4625 150.16C69.4507 149.852 69.4388 149.549 69.4388 149.24L69.4329 148.374V148.291C69.4329 148.006 69.6582 147.774 69.9428 147.774C70.18 147.774 70.3816 147.935 70.4409 148.154C70.5002 148.362 70.524 148.487 70.5655 148.647L70.6663 149.098L70.856 149.994L71.2237 151.775L71.9471 155.319C72.0657 155.906 72.1962 156.494 72.3266 157.082C72.4512 157.669 72.5875 158.251 72.7299 158.833C73.0145 159.996 73.3288 161.148 73.6846 162.288C74.408 164.549 75.2501 166.775 76.4005 168.782C76.9756 169.779 77.6339 170.717 78.3929 171.524C79.1519 172.325 80.0117 172.996 80.9664 173.418C81.4408 173.631 81.9389 173.774 82.4489 173.857C82.9292 173.934 83.5578 173.958 84.1508 173.993C85.3486 174.053 86.5464 174.082 87.7383 174.076C90.1222 174.059 92.5297 173.94 94.783 173.465C95.3404 173.34 95.8919 173.198 96.4019 173.008C96.9118 172.824 97.3862 172.592 97.748 172.319C97.9259 172.183 98.0741 172.04 98.169 171.898C98.2105 171.845 98.2816 171.714 98.3409 171.607C98.4002 171.494 98.4536 171.387 98.507 171.269C98.7086 170.812 98.8331 170.337 98.8509 169.862C98.9102 168.912 98.5485 168.01 97.8606 167.304C97.1787 166.591 96.2003 166.081 95.1507 165.736L94.5458 165.529L94.4687 164.911C94.0596 161.635 93.6326 158.352 93.2709 155.046C93.093 153.396 92.9211 151.739 92.8025 150.071C92.7432 149.234 92.6957 148.398 92.672 147.543C92.6601 146.688 92.6483 145.827 92.8025 144.877C93.0812 143.209 93.4429 141.589 93.7572 139.98C94.0774 138.372 94.3442 136.775 94.5221 135.166C94.8838 131.949 94.9135 128.696 94.6704 125.443C94.445 122.19 93.9944 118.943 93.4132 115.714C92.838 112.485 92.1324 109.274 91.3556 106.074C89.796 99.6812 87.9162 93.3594 85.9179 87.0732V87.0673C85.7459 86.5271 86.0424 85.9454 86.588 85.7732C87.1216 85.5892 87.7028 85.892 87.8747 86.4321Z" fill="#9195B9"/>
<path d="M87.0682 168.532C87.1927 168.58 87.2757 168.61 87.3647 168.657C87.4536 168.705 87.5367 168.752 87.6197 168.811C87.7798 168.924 87.928 169.055 88.0585 169.197C88.3253 169.488 88.5329 169.826 88.6752 170.189C88.9539 170.907 89.0132 171.708 88.8946 172.462C88.7701 173.222 88.4676 173.97 87.9162 174.593C87.6375 174.902 87.2876 175.175 86.8784 175.359C86.4693 175.543 86.0067 175.614 85.5739 175.572C85.1647 175.531 84.8623 175.169 84.8979 174.759C84.9334 174.391 85.2299 174.106 85.5857 174.083L85.6332 174.077C86.0483 174.047 86.3863 173.857 86.6946 173.507C86.9911 173.162 87.2164 172.682 87.3291 172.171C87.4477 171.661 87.4358 171.138 87.3291 170.622C87.2817 170.367 87.2046 170.117 87.0978 169.88C87.0504 169.755 86.9852 169.642 86.92 169.524C86.8607 169.411 86.7658 169.28 86.7183 169.197L86.6353 169.055C86.5404 168.883 86.5997 168.663 86.7717 168.568C86.8666 168.503 86.9733 168.497 87.0682 168.532Z" fill="#9195B9"/>
<path d="M93.9468 167.767C94.1781 167.826 94.3501 167.891 94.5339 167.992C94.7118 168.087 94.8778 168.212 95.032 168.342C95.3404 168.615 95.5953 168.96 95.7732 169.346C95.9452 169.731 96.0401 170.147 96.0816 170.527C96.1231 170.919 96.135 171.31 96.0994 171.696C96.0223 172.474 95.8029 173.245 95.37 173.952C95.1506 174.302 94.8719 174.634 94.5161 174.908C94.1662 175.187 93.7274 175.388 93.2708 175.466C92.8617 175.537 92.4762 175.258 92.411 174.854C92.3458 174.486 92.5652 174.136 92.9091 174.017L92.9565 173.999C93.3538 173.863 93.7037 173.542 93.9824 173.091C94.2552 172.64 94.439 172.082 94.522 171.518C94.611 170.96 94.5873 170.337 94.4568 169.856C94.3916 169.607 94.2908 169.363 94.1544 169.126C94.0299 168.888 93.8223 168.651 93.6563 168.455L93.5851 168.378C93.4487 168.224 93.4665 167.986 93.6207 167.85C93.7037 167.767 93.8342 167.737 93.9468 167.767Z" fill="#9195B9"/>
<path d="M97.8132 133.884C97.7717 134.496 97.5226 135.196 96.8881 135.962C91.1895 142.818 54.0627 146.427 40.3765 136.959C38.2714 135.505 40.0919 132.786 40.0919 132.786C35.7038 129.468 40.6434 118.071 40.6434 118.071C40.6434 118.071 92.2628 104.489 94.9787 111.969C96.3545 115.762 97.0008 119.24 97.2499 122.184C97.7302 127.823 96.7695 131.468 96.7695 131.468C96.7695 131.468 97.9021 132.418 97.8132 133.884Z" fill="white"/>
<g opacity="0.15">
<path d="M97.8132 133.884C97.7717 134.496 97.5226 135.196 96.8882 135.962C91.1896 142.818 54.0627 146.427 40.3765 136.959C38.2714 135.505 40.0919 132.786 40.0919 132.786C35.7038 129.468 40.6434 118.071 40.6434 118.071C40.6434 118.071 92.2629 104.489 94.9787 111.969C96.3545 115.762 97.0008 119.24 97.2499 122.184C96.3663 123.49 95.3049 124.523 94.0418 125.182C83.7535 130.578 63.7283 122.167 63.7283 122.167C63.7283 122.167 48.3285 127.58 49.3306 130.928C51.0029 136.514 74.4318 135.766 73.2517 137.19C71.7099 139.042 61.0184 139.333 53.1139 137.647C54.6794 143.103 89.9799 141.595 97.8132 133.884Z" fill="#9195B9"/>
</g>
<path d="M66.9185 143.726C56.4108 143.726 45.8616 142.004 39.7953 137.808C37.8859 136.484 38.1824 134.388 38.811 132.999C35.0336 128.826 39.1905 118.842 39.7064 117.661L39.908 117.204L40.3942 117.079C40.5247 117.044 53.4874 113.648 66.6161 111.209C91.1301 106.656 95.1031 109.262 95.9571 111.624C99.4912 121.353 98.3349 129.046 97.902 131.171C98.7382 132.21 99.6158 134.311 97.6886 136.632C94.2077 140.805 80.6046 143.726 66.9185 143.726ZM41.3964 118.943C40.0681 122.22 37.7969 129.758 40.7144 131.967L41.4913 132.554L40.9516 133.361C40.8271 133.551 39.7538 135.273 40.9635 136.11C46.8341 140.17 58.2787 142.206 71.5735 141.553C83.2494 140.977 93.5614 138.348 96.0934 135.303C97.4573 133.664 96.4374 132.554 96.0934 132.257L95.6131 131.836L95.7673 131.207C95.791 131.124 97.8546 122.92 94.0061 112.324C93.7749 111.683 91.3733 108.704 66.9837 113.233C55.3731 115.387 43.881 118.302 41.3964 118.943Z" fill="#9195B9"/>
<path d="M80.6105 111.969H49.7811V123.437H80.6105V111.969Z" fill="#F93556"/>
<path d="M80.6105 111.969H49.7811V123.437H80.6105V111.969Z" fill="#F93556"/>
<path d="M80.6046 111.969V123.437H67.126C65.0209 122.713 63.7222 122.167 63.7222 122.167C63.7222 122.167 62.3287 122.659 60.4015 123.437H49.7811V115.821C54.8749 114.628 61.5223 113.162 68.14 111.969H80.6046Z" fill="#8080B9"/>
<path d="M63.7284 122.172C63.7284 122.172 65.027 122.718 67.1321 123.443H60.4136C62.3349 122.665 63.7284 122.172 63.7284 122.172Z" fill="white"/>
<path d="M61.2852 117.703L58.8065 116.688L56.2033 115.619C56.2033 115.619 40.4417 117.75 44.8417 101.729C44.9425 101.373 45.0551 101.023 45.1856 100.684C50.8545 85.791 85.9831 87.7083 85.9831 87.7083C88.4321 89.7562 90.5253 91.8635 92.2687 94.0123C93.8105 95.9177 95.0795 97.8588 96.0816 99.8355C97.8546 103.314 98.8034 106.893 98.9813 110.562C99.4794 120.748 88.5744 131.118 61.2852 117.703Z" fill="white"/>
<g opacity="0.15">
<path d="M92.2689 94.0186C82.8404 99.0583 59.0557 101.534 45.1858 100.691C50.8547 85.7974 85.9833 87.7147 85.9833 87.7147C88.4323 89.7626 90.5255 91.8698 92.2689 94.0186Z" fill="#9195B9"/>
</g>
<g opacity="0.15">
<path d="M61.2852 117.703L58.8065 116.688C65.1989 111.476 78.3573 102.204 89.0785 104.198C89.0785 104.198 70.4172 109.333 76.608 117.703C80.3853 122.802 88.7049 118.706 89.4758 113.749C89.6181 112.823 94.5458 116.355 95.5242 113.702C96.3663 111.416 95.7733 108.995 91.3852 105.534C90.2644 104.65 98.2579 107.689 96.0757 99.8354C97.8487 103.314 98.7975 106.893 98.9754 110.562C99.4795 120.748 88.5744 131.118 61.2852 117.703Z" fill="#9195B9"/>
</g>
<path d="M83.623 125.087C78.209 125.087 70.7967 123.526 60.8642 118.646L55.8179 116.575C55.2901 116.361 55.0411 115.756 55.2545 115.227C55.468 114.699 56.0729 114.45 56.6006 114.663L61.7418 116.777C80.2252 125.859 89.2505 123.092 92.9863 120.635C96.3426 118.427 98.1512 114.77 97.9496 110.615C97.5582 102.625 93.3124 95.1876 85.319 88.5096C84.8802 88.1416 84.8208 87.4946 85.1885 87.0553C85.5502 86.6161 86.2025 86.5567 86.6413 86.9247C95.0973 93.9885 99.5921 101.925 100.013 110.514C100.25 115.423 98.1037 119.739 94.1189 122.362C92.1205 123.674 88.7701 125.087 83.623 125.087Z" fill="#9195B9"/>
<path d="M78.5886 105.54C67.9267 109.63 49.7042 135.38 37.9572 120.718C35.5674 117.732 34.9922 114.473 35.5733 111.226C36.279 107.255 38.6984 103.296 41.604 99.8828C44.1776 96.8614 47.1247 94.2555 49.5915 92.4272C53.5408 89.5067 58.6049 91.7565 58.6049 91.7565L50.8131 100.856L47.8422 104.323C58.344 98.5769 69.5633 98.4819 74.9951 101.497C77.5983 102.946 78.3395 104.673 78.5233 105.296C78.5767 105.451 78.5886 105.54 78.5886 105.54Z" fill="white"/>
<g opacity="0.15">
<path d="M58.5101 91.8755L50.7182 100.975C50.7182 100.975 46.1463 100.975 41.5092 100.002C44.0827 96.9804 47.0299 94.3745 49.4967 92.5462C53.44 89.6317 58.5101 91.8755 58.5101 91.8755Z" fill="#9195B9"/>
</g>
<g opacity="0.15">
<path d="M78.5886 105.54C67.9267 109.63 49.7042 135.38 37.9572 120.718C35.5674 117.732 34.9922 114.474 35.5733 111.227C35.9054 112.586 36.5755 113.767 37.9156 113.933C42.286 114.485 41.5684 108.805 44.5156 106.893C45.245 106.418 41.6455 115.524 42.873 117.703C44.1005 119.887 47.1959 114.978 48.6961 113.797C50.1964 112.616 46.5614 120.303 53.2443 117.703C58.5872 115.625 71.3541 103.148 78.5352 105.297C78.5767 105.451 78.5886 105.54 78.5886 105.54Z" fill="#9195B9"/>
</g>
<path d="M47.5991 103.866C49.9532 102.21 52.592 100.975 55.3435 100.091C58.1009 99.2181 60.965 98.6542 63.8766 98.4761C66.7822 98.2981 69.7471 98.4583 72.635 99.3191C74.07 99.7583 75.505 100.376 76.7622 101.325C77.3907 101.794 77.9778 102.352 78.4759 103.005C78.7309 103.326 78.9503 103.682 79.14 104.062C79.2349 104.252 79.3239 104.448 79.4009 104.655C79.4425 104.756 79.478 104.863 79.5077 104.976C79.5255 105.029 79.5373 105.095 79.5551 105.148L79.5788 105.243L79.6026 105.374C79.6915 105.855 79.4247 106.312 78.9859 106.484L78.9562 106.496C77.3314 107.137 75.76 108.152 74.2479 109.232C72.7299 110.324 71.2533 111.506 69.7768 112.705C66.8296 115.109 63.9121 117.602 60.799 119.893C59.2394 121.039 57.6383 122.143 55.9365 123.122C54.2405 124.102 52.4438 124.974 50.5047 125.556C48.5775 126.138 46.4606 126.405 44.3673 126.019C43.3296 125.829 42.3156 125.467 41.3846 124.974C40.4536 124.482 39.6056 123.864 38.8466 123.17C38.0817 122.469 37.4116 121.721 36.8067 120.89C36.1782 120.077 35.686 119.151 35.259 118.201C34.8736 117.234 34.583 116.219 34.4407 115.186C34.3933 114.931 34.3933 114.669 34.3636 114.408C34.3399 114.147 34.3221 113.892 34.3281 113.631L34.334 112.853L34.3992 112.081C34.417 111.826 34.4585 111.571 34.5 111.316C34.5475 111.066 34.5771 110.805 34.6305 110.562C34.7491 110.069 34.8558 109.565 35.0159 109.09C35.3005 108.116 35.686 107.19 36.107 106.282C36.9668 104.483 38.0164 102.798 39.1905 101.224C40.3647 99.6515 41.6455 98.1734 43.0153 96.7844C44.3792 95.3895 45.8201 94.0776 47.3322 92.8489C47.7118 92.5461 48.0913 92.2375 48.4826 91.9466L48.7732 91.727C48.8681 91.6557 48.963 91.5786 49.0816 91.5073L49.7635 91.0621C50.7123 90.5279 51.7559 90.1777 52.8114 90.0174C53.867 89.8512 54.9284 89.869 55.9602 90.0056C56.4761 90.0708 56.9801 90.1777 57.4842 90.3023C57.7332 90.3736 57.9823 90.4389 58.2313 90.522C58.3559 90.5635 58.4804 90.6051 58.6049 90.6526C58.7354 90.7001 58.8421 90.7416 59.0022 90.8069C59.524 91.0265 59.7731 91.632 59.5478 92.1603C59.3284 92.6827 58.7294 92.926 58.2076 92.7123L58.1661 92.6945C58.1009 92.6708 57.9941 92.6233 57.8933 92.5877C57.7925 92.5521 57.6917 92.5165 57.5909 92.4808C57.3893 92.4096 57.1758 92.3562 56.9683 92.2968C56.5473 92.19 56.1144 92.095 55.6874 92.0475C54.8276 91.9288 53.9618 91.9229 53.1316 92.0535C52.3015 92.184 51.5128 92.4512 50.7953 92.8489L50.2794 93.1872C50.1964 93.2347 50.1015 93.3119 50.0066 93.3831L49.7279 93.5909C49.3543 93.8698 48.9926 94.1607 48.625 94.4575C47.1721 95.6328 45.7905 96.8972 44.48 98.2328C43.1695 99.5624 41.9479 100.981 40.839 102.465C39.7242 103.949 38.7517 105.522 37.9631 107.166C37.5835 107.991 37.2337 108.834 36.9846 109.695C36.8423 110.122 36.7534 110.556 36.6466 110.989C36.5933 111.209 36.5695 111.428 36.534 111.642C36.4984 111.862 36.4569 112.081 36.445 112.295L36.3857 112.954L36.3798 113.607C36.3679 113.827 36.3916 114.04 36.4094 114.26C36.4332 114.474 36.4272 114.693 36.4687 114.907C36.5814 115.768 36.8245 116.599 37.1447 117.406C37.5065 118.195 37.9038 118.973 38.4493 119.667C38.9593 120.38 39.5701 121.062 40.2164 121.65C41.5091 122.837 43.0509 123.692 44.729 123.995C46.4072 124.309 48.1802 124.102 49.8939 123.585C51.6136 123.069 53.2799 122.262 54.881 121.341C56.488 120.415 58.0356 119.353 59.5537 118.237C62.5839 115.999 65.4836 113.536 68.4485 111.108C69.9369 109.897 71.4371 108.692 73.0204 107.552C74.6096 106.424 76.2581 105.332 78.1913 104.566L77.539 105.688C77.539 105.7 77.5449 105.712 77.539 105.688L77.5271 105.659C77.5212 105.635 77.5153 105.611 77.5034 105.581C77.4856 105.522 77.4619 105.469 77.4322 105.403C77.3789 105.285 77.3196 105.16 77.2484 105.035C77.1061 104.792 76.946 104.549 76.7622 104.323C76.3945 103.866 75.9379 103.45 75.4339 103.088C74.9298 102.726 74.3665 102.418 73.7794 102.162C73.6312 102.097 73.5007 102.014 73.3466 101.961L72.89 101.794C72.5875 101.682 72.2851 101.563 71.959 101.486C70.7018 101.1 69.3676 100.91 68.0334 100.767C67.3574 100.726 66.6873 100.661 66.0113 100.667C65.6733 100.667 65.3353 100.649 64.9973 100.655L63.9774 100.696C61.2615 100.839 58.5397 101.284 55.9009 102.038C53.2502 102.768 50.6648 103.718 48.0675 104.762H48.0616C47.7948 104.869 47.4923 104.739 47.3856 104.471C47.3263 104.258 47.4093 104.003 47.5991 103.866Z" fill="#9195B9"/>
<path d="M78.1497 104.608C78.4106 104.501 78.6241 104.424 78.8553 104.347C79.0807 104.269 79.306 104.204 79.5313 104.133C79.982 104.008 80.4386 103.89 80.8952 103.795C81.8084 103.599 82.7275 103.462 83.6526 103.391C84.5777 103.32 85.5027 103.296 86.4219 103.349C87.3469 103.385 88.2601 103.528 89.1614 103.688C89.4401 103.735 89.6299 104.008 89.5765 104.287C89.5291 104.548 89.2919 104.733 89.031 104.709H89.0073C88.1415 104.638 87.2758 104.59 86.4159 104.643C85.5561 104.673 84.6963 104.774 83.8483 104.928C83.0003 105.077 82.1701 105.285 81.3518 105.546C80.9427 105.676 80.5454 105.819 80.1481 105.973C79.9524 106.056 79.7567 106.133 79.5669 106.216C79.3831 106.3 79.1815 106.395 79.0332 106.472L79.0214 106.478C78.5173 106.745 77.8947 106.555 77.6279 106.05C77.361 105.546 77.5508 104.922 78.0548 104.655C78.0845 104.632 78.12 104.62 78.1497 104.608Z" fill="#9195B9"/>
<path d="M77.6042 95.9059C81.8559 95.241 100.464 91.9822 111.304 79.3624C122.132 66.7544 115.016 42.8325 105.433 30.3077C98.1631 20.8101 85.3486 4.37349 53.6654 9.79301C11.8361 16.9518 1.77907 77.0414 23.6425 90.9315C39.41 100.951 55.3969 97.9538 59.9451 97.841" fill="white"/>
<path d="M77.0526 94.1314C81.1264 93.5022 98.9516 90.3977 109.335 78.3833C119.706 66.3808 112.893 43.6164 103.713 31.697C96.7516 22.6566 84.4768 7.01536 54.1218 12.1737C14.0597 18.9941 4.42365 76.1811 25.3679 89.4004C40.4713 98.9336 55.7881 96.0843 60.1407 95.9775" fill="#E8E8E8"/>
<path d="M77.5211 95.3955C83.451 94.2498 89.2623 92.4631 94.7118 89.97C96.0698 89.3408 97.4099 88.67 98.7085 87.934C100.013 87.2039 101.294 86.4381 102.521 85.6071C103.755 84.782 104.959 83.9035 106.103 82.9596C107.242 82.0099 108.339 81.0186 109.365 79.9442C109.625 79.683 109.863 79.3981 110.118 79.131L110.491 78.7214C110.61 78.5848 110.717 78.4365 110.829 78.2999C111.049 78.015 111.286 77.7419 111.493 77.4451L112.098 76.5488L112.252 76.3233L112.389 76.0858L112.656 75.6169L112.922 75.1479C113.011 74.9936 113.083 74.8215 113.166 74.6612C113.32 74.3347 113.48 74.0082 113.628 73.6758L114.031 72.6608C114.523 71.2896 114.945 69.8887 115.188 68.4344C115.265 68.0782 115.318 67.7102 115.366 67.3481C115.413 66.986 115.478 66.618 115.508 66.2559C115.573 65.5198 115.65 64.7897 115.662 64.0477C115.792 61.0916 115.52 58.1118 115.022 55.1735C114.5 52.2352 113.729 49.3325 112.75 46.507C111.76 43.6815 110.586 40.9153 109.193 38.2679C107.811 35.6145 106.222 33.0799 104.401 30.7173C102.557 28.3014 100.683 25.9567 98.6255 23.7842C97.6056 22.6919 96.5323 21.6531 95.4234 20.6618C94.3204 19.6646 93.1523 18.7386 91.9544 17.8601L91.0472 17.2131L90.1162 16.6017C89.5054 16.1802 88.8531 15.824 88.2186 15.4382C86.92 14.72 85.6095 14.0255 84.2456 13.4497C81.5238 12.2684 78.6834 11.3721 75.7659 10.7963C69.9309 9.62691 63.8825 9.58536 57.9348 10.3036L56.82 10.4342C56.4464 10.4817 56.0788 10.547 55.7052 10.6004C54.9639 10.7191 54.2168 10.8141 53.4874 10.9566C52.758 11.105 52.0227 11.2237 51.3052 11.4077L50.2201 11.6629C49.8583 11.7579 49.5025 11.8648 49.1468 11.9597C47.7117 12.3515 46.3182 12.8561 44.9306 13.3903C43.5608 13.9602 42.2029 14.5597 40.8924 15.2601C40.5662 15.4382 40.2342 15.6044 39.908 15.7825L38.9474 16.3464L38.4671 16.6254L37.9986 16.9281L37.0617 17.5277C35.8342 18.3646 34.6245 19.2253 33.486 20.181C32.3297 21.113 31.2386 22.128 30.1712 23.1609C29.6553 23.6951 29.1157 24.2115 28.6235 24.7695L27.8704 25.5946L27.147 26.4435C23.2985 31.0023 20.2624 36.2378 18.015 41.776C16.9061 44.554 15.9632 47.4033 15.2635 50.3179C14.8959 51.7662 14.6172 53.2383 14.3444 54.7105C14.1013 56.1885 13.8878 57.6666 13.7573 59.1565C13.6209 60.6464 13.5261 62.1363 13.5142 63.6322C13.4905 64.3801 13.5142 65.1221 13.5261 65.87C13.5616 66.612 13.5794 67.36 13.6447 68.102C13.6862 68.844 13.781 69.5859 13.8522 70.322C13.953 71.0581 14.0479 71.7941 14.1843 72.5242C14.4393 73.9845 14.7595 75.4329 15.1924 76.8516C15.6134 78.2643 16.1233 79.6533 16.7282 80.9889C17.3449 82.3186 18.0624 83.6007 18.8867 84.7939C19.7168 85.987 20.6538 87.097 21.7093 88.0764C21.982 88.3139 22.237 88.5691 22.5217 88.7888C22.8063 89.0084 23.0791 89.2399 23.3696 89.4476L24.2591 90.0531L25.2138 90.6348C25.5281 90.8307 25.8483 91.0207 26.1745 91.1987L27.147 91.7449C27.8111 92.0773 28.4634 92.4394 29.1394 92.748C30.4795 93.3951 31.8612 93.953 33.2547 94.4635C34.6542 94.974 36.0833 95.3955 37.5242 95.7694C38.9652 96.1434 40.4298 96.4402 41.9005 96.6658C43.3711 96.8973 44.8595 97.0635 46.3479 97.1822C47.095 97.2415 47.8363 97.2831 48.5893 97.3187C49.3365 97.3543 50.0837 97.3781 50.8368 97.3899C52.337 97.4196 53.8373 97.4018 55.3494 97.3721C56.8674 97.3484 58.3677 97.2653 59.945 97.3306C60.2297 97.3425 60.4491 97.5858 60.4372 97.8708C60.4254 98.126 60.2297 98.3278 59.9865 98.3634H59.9688C58.5041 98.5534 56.9801 98.8027 55.4561 98.9689C53.9322 99.1411 52.3904 99.2538 50.8486 99.3073C47.7592 99.4082 44.6519 99.2004 41.5862 98.7255C40.0503 98.4881 38.5264 98.1854 37.0202 97.7995C35.514 97.4137 34.0197 96.9804 32.555 96.4461C31.0903 95.9178 29.6434 95.3361 28.244 94.6653C27.5324 94.3448 26.8505 93.9708 26.1567 93.6206L25.1367 93.0508C24.7928 92.8667 24.4607 92.6709 24.1287 92.4631L23.1324 91.8576L22.1362 91.1809C21.8101 90.9435 21.5017 90.6883 21.1815 90.4449C20.8672 90.1956 20.5767 89.9166 20.2742 89.6495C19.0942 88.5573 18.0565 87.3344 17.1433 86.0285C16.236 84.7226 15.4533 83.3336 14.7891 81.9031C14.1309 80.4666 13.5854 78.9885 13.1347 77.4867C12.6781 75.9849 12.3282 74.4534 12.0614 72.916C11.9131 72.1503 11.8183 71.3727 11.7115 70.601C11.6285 69.8234 11.5336 69.0517 11.4862 68.2741C11.415 67.4965 11.3972 66.7189 11.3557 65.9413C11.3439 65.1637 11.3202 64.3861 11.3379 63.6084C11.3498 62.0532 11.4447 60.5039 11.5811 58.9606C11.7175 57.4173 11.9369 55.8798 12.18 54.3484C12.4528 52.8228 12.7433 51.2973 13.1288 49.7955C13.8581 46.78 14.8306 43.8299 15.981 40.9509C18.3115 35.2109 21.4661 29.7735 25.4807 25.0188L26.2397 24.1284L27.0284 23.2677C27.5443 22.686 28.1076 22.1458 28.6472 21.5819C29.762 20.4956 30.9065 19.439 32.1221 18.4596C33.3199 17.4624 34.5889 16.5542 35.8757 15.6756L36.8601 15.0464L37.3523 14.7318L37.8563 14.435L38.8644 13.8474C39.2024 13.6574 39.5522 13.4793 39.8962 13.2953C41.2719 12.5593 42.701 11.9241 44.1419 11.3305C45.5948 10.7726 47.0654 10.2383 48.5716 9.82874C48.9451 9.72782 49.3187 9.61504 49.6982 9.51413L50.8368 9.24701C51.5899 9.05113 52.3607 8.93241 53.1257 8.77807C53.8906 8.62967 54.6497 8.5347 55.4146 8.41598C55.7941 8.36256 56.1736 8.29726 56.5591 8.24384L57.7095 8.11324C63.835 7.37719 70.1147 7.42468 76.2284 8.65342C79.2823 9.25888 82.2769 10.2086 85.141 11.4492C86.582 12.0547 87.9636 12.7848 89.3275 13.5446C89.9916 13.9542 90.6795 14.3341 91.3199 14.7734L92.2984 15.4204L93.2531 16.103C94.5102 17.0231 95.7318 17.9966 96.8821 19.0413C98.0444 20.0801 99.1592 21.1664 100.215 22.3002C102.344 24.5558 104.271 26.9777 106.121 29.4055C108.012 31.8749 109.673 34.5223 111.096 37.2706C112.537 40.013 113.747 42.8742 114.767 45.8006C115.775 48.733 116.575 51.7365 117.109 54.7995C117.625 57.8624 117.915 60.9848 117.773 64.1189C117.755 64.9025 117.672 65.686 117.601 66.4696C117.566 66.8614 117.494 67.2472 117.447 67.639C117.394 68.0307 117.34 68.4166 117.257 68.8024C116.99 70.3576 116.54 71.8832 116 73.379L115.561 74.489C115.401 74.8511 115.217 75.2073 115.051 75.5694C114.962 75.7475 114.885 75.9315 114.784 76.1036L114.488 76.626L114.191 77.1483L114.043 77.4095L113.877 77.6588L113.207 78.6561C112.976 78.9826 112.715 79.2853 112.466 79.6058C112.341 79.7602 112.217 79.9204 112.092 80.0748L111.701 80.514C111.44 80.8049 111.185 81.1076 110.912 81.3866C109.839 82.5263 108.689 83.5889 107.497 84.598C106.299 85.6011 105.036 86.5212 103.743 87.3879C102.444 88.2426 101.092 89.0203 99.7225 89.7504C98.3468 90.4686 96.9415 91.1156 95.5183 91.7211C94.0951 92.3206 92.6482 92.8727 91.1895 93.3654C89.7307 93.8581 88.2483 94.2914 86.7599 94.6832C83.7831 95.4667 80.7648 96.0544 77.7168 96.4283C77.4322 96.4639 77.1772 96.2621 77.1416 95.9772C77.0764 95.6923 77.2602 95.4429 77.5211 95.3955Z" fill="#9195B9"/>
<path d="M112.288 61.5369C113.017 79.0242 96.9354 86.5628 84.5419 90.9792C79.4601 92.7896 74.2121 94.0659 68.8693 94.8257C63.5265 95.5855 58.1185 95.8289 52.7282 95.5143C45.3752 95.0809 36.6405 94.0243 29.6492 90.1956C27.2239 88.8719 25.0061 87.2099 23.1264 85.1263C21.7921 83.6423 20.624 81.9447 19.6752 79.9977C19.0347 78.6799 18.4951 77.2434 18.0682 75.6882C17.9081 75.0946 17.7598 74.4891 17.6353 73.8599C17.2617 72.0198 17.0364 70.0193 16.983 67.8468C16.9356 65.9651 17.4515 59.4355 18.4951 52.9594C18.8509 50.7513 19.266 48.5549 19.7463 46.5486C15.2752 34.7657 11.9782 19.5934 15.3404 13.7228C17.5286 9.90597 25.267 12.3219 37.5893 20.1752C44.9423 15.5985 55.6635 13.8652 57.3179 13.6337C58.9664 13.3904 69.7469 12.0607 78.0843 14.3995C87.7263 3.41204 94.4804 -1.0696 97.6469 1.98147C102.515 6.67681 103.583 22.1696 102.575 34.7301C106.583 41.788 110.527 51.9681 111.167 54.4078C111.837 56.9543 112.199 59.3228 112.288 61.5369Z" fill="#EAECFF"/>
<g opacity="0.5">
<path d="M102.361 15.836C101.531 10.9922 100.149 7.0389 98.0799 5.04442C94.9134 1.99335 88.1592 6.46905 78.5173 17.4565C70.1799 15.1177 59.3994 16.4474 57.7509 16.6908C56.1024 16.9223 45.3753 18.6556 38.0222 23.2322C25.7059 15.3789 17.9674 12.963 15.7793 16.7798C14.3502 19.2729 14.1249 23.4577 14.6764 28.343C13.6446 22.1696 13.6209 16.7264 15.3405 13.7228C17.5286 9.90597 25.2671 12.3219 37.5894 20.1752C44.9424 15.5985 55.6636 13.8652 57.318 13.6337C58.9665 13.3904 69.747 12.0607 78.0844 14.3995C87.7264 3.41204 94.4805 -1.0696 97.647 1.98147C100.138 4.38553 101.632 9.62104 102.361 15.836Z" fill="white"/>
</g>
<path d="M112.288 61.5367C113.017 79.024 96.9356 86.5627 84.5421 90.979C79.4602 92.7895 74.2123 94.0657 68.8695 94.8255C63.5267 95.5853 58.1187 95.8287 52.7284 95.5141C45.3754 95.0808 36.6407 94.0242 29.6494 90.1955C27.2241 88.8718 25.0063 87.2097 23.1265 85.1262C21.7923 83.6422 20.6241 81.9445 19.6754 79.9975C19.0349 78.6797 18.4953 77.2432 18.0684 75.688C38.8881 88.9905 51.2578 79.9263 55.5095 66.8909C57.1521 61.8572 61.641 60.7591 63.6157 60.4742C65.5903 60.1952 70.2097 59.9934 73.1864 64.3681C81.0198 75.8542 95.7259 81.0838 112.288 61.5367Z" fill="white"/>
<g opacity="0.15">
<path d="M111.303 69.6333C107.657 81.4874 94.854 87.3046 84.5716 90.9671C79.4838 92.7835 74.218 94.0597 68.8693 94.8255C63.5265 95.5853 58.1185 95.8287 52.7282 95.514C45.3752 95.0807 36.6405 94.0241 29.6492 90.1954C27.2239 88.8717 25.0061 87.2097 23.1263 85.1261C22.397 84.3188 21.721 83.4463 21.1042 82.5084C22.225 83.3453 23.405 84.0933 24.6325 84.764C32.2761 88.9489 57.0333 90.1479 68.051 88.5749C79.0627 87.0019 105.231 77.6943 111.303 69.6333Z" fill="#9195B9"/>
</g>
<path d="M33.2011 42.6544C32.5192 41.8649 35.1046 33.5724 42.3865 34.8724C45.0075 35.3413 45.5945 37.7513 43.7266 38.5527C41.9477 39.3125 41.0582 39.0335 38.3305 40.4522C36.7887 41.2535 33.8831 43.4439 33.2011 42.6544Z" fill="#9195B9"/>
<path d="M88.5684 34.7595C89.0013 33.8097 84.21 26.5679 77.5804 29.8564C75.1906 31.0377 75.3033 33.5189 77.3195 33.7623C79.2407 33.9938 80.0175 33.4773 83.0299 34.0769C84.7318 34.4211 88.1355 35.7092 88.5684 34.7595Z" fill="#9195B9"/>
<path d="M27.5796 30.9725C24.7155 35.0564 23.3042 40.4047 22.9187 39.8586C22.8832 39.8052 22.8416 39.7458 22.8001 39.6687C21.9225 38.1075 19.936 31.7085 19.1177 25.8735C18.9872 24.9297 18.8983 24.0987 18.839 23.3567C18.6907 21.3622 18.7915 20.0503 19.0228 19.1956C19.3134 18.1449 20.2266 17.7056 21.1279 17.9193C23.5176 18.4892 30.5386 21.8133 33.0114 24.2293C33.462 24.6507 30.4497 26.8826 27.5796 30.9725Z" fill="#C2C6EF"/>
<path d="M27.5798 30.9725C24.7157 35.0564 23.3043 40.4047 22.9189 39.8586C22.8833 39.8052 22.8418 39.7458 22.8003 39.6687C23.1205 36.4989 24.5971 31.9757 25.7534 28.6931C27.3367 24.2114 23.8795 21.3088 21.1459 20.6796C20.209 20.4659 19.361 22.0745 18.8451 23.3567C18.6968 21.3622 18.7976 20.0503 19.0289 19.1956C19.3195 18.1449 20.2327 17.7056 21.134 17.9193C23.5238 18.4892 30.5447 21.8133 33.0175 24.2293C33.4622 24.6507 30.4498 26.8826 27.5798 30.9725Z" fill="#9DA1CE"/>
<path d="M22.9841 41.0695C22.5808 41.0695 22.2013 40.8736 21.9641 40.5352C20.9916 39.1522 18.8154 32.1062 17.9674 26.0396C17.5108 22.763 17.4871 20.4242 17.9022 18.8928C18.341 17.29 19.8116 16.3997 21.4067 16.7796C23.9328 17.3791 31.1317 20.7448 33.8417 23.3863C34.1085 23.6475 34.6362 24.3894 33.7171 25.5707C33.4384 25.9269 33.0352 26.3602 32.5193 26.9063C31.4519 28.0401 29.9872 29.5953 28.5463 31.6491C26.963 33.9048 25.8304 36.6056 25.0773 38.3924C24.2649 40.3215 23.9921 40.9745 23.1205 41.0695C23.073 41.0635 23.0315 41.0695 22.9841 41.0695ZM20.286 25.7072C20.8849 30.0167 22.142 34.5933 23.0374 37.1755C23.8261 35.3057 24.9884 32.6285 26.625 30.2957C28.1608 28.1054 29.756 26.4136 30.8115 25.2917C31.0665 25.0246 31.3392 24.7337 31.5587 24.4904C28.8013 22.2941 22.8299 19.522 20.8671 19.053C20.6655 19.0055 20.3038 18.9996 20.1615 19.4982C19.942 20.3293 19.7819 22.0804 20.286 25.7072Z" fill="#9195B9"/>
<path d="M90.8278 21.9496C94.7178 25.0719 97.5641 29.8147 97.7776 29.1796C97.8013 29.1202 97.8191 29.049 97.8369 28.9659C98.2401 27.2207 98.3647 20.519 97.5226 14.6899C97.3862 13.7521 97.238 12.921 97.0838 12.1968C96.6687 10.238 96.2062 9.00924 95.7437 8.24943C95.1744 7.31749 94.1722 7.15722 93.3658 7.60835C91.231 8.82522 85.4138 13.9776 83.712 16.9872C83.4155 17.5273 86.9319 18.8273 90.8278 21.9496Z" fill="#C2C6EF"/>
<path d="M90.8275 21.9497C94.7175 25.072 97.5639 29.8148 97.7774 29.1797C97.8011 29.1203 97.8189 29.0491 97.8366 28.966C96.6447 26.0099 93.9704 22.0803 91.9424 19.2488C89.1731 15.3845 91.6815 11.633 94.1305 10.2677C94.9666 9.79879 96.2356 11.1106 97.0895 12.191C96.6744 10.2321 96.2119 9.00338 95.7493 8.24357C95.1801 7.31163 94.1779 7.15136 93.3715 7.60249C91.2367 8.81936 85.4195 13.9718 83.7176 16.9813C83.4152 17.5274 86.9316 18.8274 90.8275 21.9497Z" fill="#9DA1CE"/>
<path d="M97.6647 30.4206C96.9591 30.4206 96.4788 29.827 95.3046 28.3727C94.0831 26.8649 92.2389 24.5915 90.0923 22.87C88.1354 21.3029 86.2972 20.2167 84.957 19.4272C84.3107 19.0473 83.7948 18.7445 83.4331 18.4834C82.2174 17.6048 82.5199 16.7501 82.7037 16.4236C84.5657 13.1291 90.537 7.88769 92.7963 6.60553C94.2195 5.79824 95.8798 6.2375 96.7456 7.65025C97.5699 9.00959 98.2043 11.2593 98.6787 14.536C99.5564 20.6025 99.4318 27.9749 98.8863 29.5777C98.738 30.011 98.3704 30.3315 97.9256 30.4087C97.8367 30.4087 97.7477 30.4206 97.6647 30.4206ZM85.2002 16.8391C85.4789 17.0112 85.8169 17.2131 86.1371 17.403C87.4654 18.1806 89.4697 19.3619 91.551 21.0358C93.7747 22.8225 95.6308 25.0663 96.9116 26.6453C97.054 23.9088 96.9769 19.1719 96.3542 14.8624C95.8265 11.2356 95.186 9.59725 94.7413 8.86119C94.4745 8.42193 94.1246 8.52877 93.9467 8.62969C92.1915 9.63286 87.2341 13.9602 85.2002 16.8391Z" fill="#9195B9"/>
<path d="M57.3595 96.6953C55.788 96.6953 54.2226 96.6478 52.6689 96.5588C45.5828 96.1373 36.5041 95.1401 29.1452 91.1155C26.4886 89.6612 24.2056 87.8864 22.3495 85.8266C20.9086 84.2239 19.693 82.4194 18.7323 80.4546C17.7895 78.5076 17.072 76.3588 16.6035 74.0615C16.2121 72.1324 15.9868 70.0488 15.9334 67.8704C15.8801 65.8343 16.4375 59.1148 17.4574 52.793C17.8251 50.5196 18.2224 48.442 18.6493 46.6196C14.024 34.3085 10.9405 19.2846 14.4272 13.2002C15.0499 12.114 16.0224 11.4017 17.3092 11.087C21.1043 10.1551 27.7457 12.7194 37.5952 18.9403C45.5175 14.2568 56.6835 12.6601 57.1638 12.5948C57.6382 12.5235 68.8041 10.9386 77.7167 13.2181C85.4492 4.4922 91.1123 0.164895 95.0141 0.00462433C96.3424 -0.0487992 97.475 0.360781 98.3704 1.22743C103.417 6.09491 104.65 21.38 103.642 34.4925C107.585 41.5147 111.493 51.5406 112.181 54.1346C114.903 64.4572 112.887 73.1474 106.174 79.9559C100.262 85.9572 91.8238 89.4772 85.1349 91.8694C79.9463 93.7273 74.5205 95.0689 69.0116 95.8524C65.1335 96.4163 61.2317 96.6953 57.3595 96.6953ZM19.0051 12.9925C18.5366 12.9925 18.1453 13.04 17.8191 13.1231C17.0838 13.3012 16.5857 13.6632 16.2536 14.245C13.093 19.7535 16.3604 34.6587 20.7307 46.1745L20.8434 46.4772L20.7663 46.7918C20.3275 48.6379 19.9124 50.7689 19.5329 53.1255C18.4596 59.7915 17.9911 66.1371 18.0326 67.8169C18.086 69.8767 18.2935 71.8356 18.6612 73.646C19.094 75.7711 19.7523 77.7537 20.618 79.5404C21.4897 81.3272 22.5927 82.9714 23.9032 84.4257C25.5991 86.3074 27.6983 87.9398 30.1473 89.2754C37.1386 93.1041 45.9208 94.0598 52.7875 94.4634C58.0295 94.7721 63.3901 94.5465 68.7152 93.7867C74.0817 93.021 79.3711 91.7151 84.4234 89.9046C99.3192 84.5682 115.703 75.7414 110.147 54.6807C109.495 52.1994 105.504 42.0312 101.656 35.2582L101.495 34.9792L101.519 34.6587C102.504 22.3772 101.478 7.15745 96.9117 2.74703C96.4254 2.27809 95.8502 2.07627 95.0971 2.10595C92.8082 2.20093 88.1355 4.53376 78.8671 15.0938L78.4342 15.5924L77.7997 15.4144C69.2133 12.9984 57.9406 14.6011 57.4662 14.6664C56.9859 14.7317 45.7191 16.3463 38.1408 21.0594L37.5834 21.4097L37.026 21.0535C26.9274 14.6189 21.7032 12.9925 19.0051 12.9925Z" fill="#9195B9"/>
<path d="M73.4058 67.8048C73.4058 67.8048 74.1233 72.8147 69.6048 73.1887C66.4086 73.4558 65.3768 70.933 65.2997 70.7312C65.2819 70.9508 64.9913 73.6576 61.8485 74.2928C57.407 75.195 56.6954 70.1851 56.6954 70.1851L64.09 62.5099L64.1671 62.498L73.4058 67.8048Z" fill="#E8E8E8"/>
<path d="M73.3643 67.8464C73.3643 67.8464 72.4452 71.8651 68.9228 71.4614C64.9083 71.0044 64.7245 66.315 64.7245 66.315L64.5822 66.3328C64.5822 66.3328 65.697 70.8916 61.9671 72.4349C58.6879 73.7943 56.7014 70.1852 56.7014 70.1852C56.7014 70.1852 54.5311 61.7621 63.7994 60.4443C73.0619 59.1206 73.3643 67.8464 73.3643 67.8464Z" fill="white"/>
<path d="M73.0498 68.7547C72.5458 69.9122 71.3539 71.7346 68.9227 71.4556C64.9081 70.9985 64.7243 66.3091 64.7243 66.3091L64.582 66.3269C64.582 66.3269 65.6968 70.8857 61.961 72.435C59.7077 73.367 58.0591 71.9483 57.2527 70.9748C57.9168 70.9392 58.6225 70.7908 59.3637 70.4821C65.5248 67.9237 63.8823 61.7622 63.8823 61.7622L64.1195 61.7266C64.1195 61.7266 64.2262 68.1077 70.8558 68.8675C71.6682 68.9625 72.3976 68.915 73.0498 68.7547Z" fill="#E8E8E8"/>
<path d="M57.2113 69.9063C57.3536 70.0725 57.5374 70.2862 57.7094 70.4584C57.8873 70.6424 58.077 70.8086 58.2668 70.9689C58.6522 71.2775 59.0554 71.5268 59.4705 71.6752C59.8856 71.8296 60.3007 71.8771 60.7158 71.8474C60.9234 71.7999 61.1368 71.794 61.3444 71.699C61.4452 71.6574 61.5578 71.6337 61.6587 71.5921L61.967 71.4378C62.7913 71.0282 63.3605 70.3337 63.6926 69.4433C63.8586 68.9981 63.9535 68.5054 64.0069 68.0009C64.0365 67.7456 64.0425 67.4904 64.0425 67.2292C64.0425 66.9799 64.0306 66.695 64.0128 66.4753L64.0069 66.4279C63.9772 66.1073 64.2144 65.8224 64.5346 65.7927C64.8133 65.769 65.0624 65.9411 65.1454 66.1964C65.2521 66.5228 65.3115 66.8018 65.3648 67.1105C65.4182 67.4132 65.4478 67.7219 65.4538 68.0306C65.4716 68.6479 65.43 69.289 65.2462 69.9241C64.9319 71.1885 64.0069 72.4172 62.8031 73.0168L62.3584 73.2423C62.2042 73.3136 62.0382 73.3611 61.8781 73.4145C61.5638 73.5391 61.2021 73.5688 60.8581 73.6222C60.1465 73.6697 59.429 73.5154 58.8064 73.2305C58.1838 72.9396 57.656 72.5181 57.229 72.0492C57.0156 71.8118 56.8199 71.5625 56.6479 71.3072C56.47 71.0401 56.3277 70.7908 56.1854 70.4702C56.0549 70.1734 56.1854 69.8292 56.476 69.6926C56.7191 69.5798 56.9978 69.6511 57.1638 69.847L57.2113 69.9063Z" fill="#9195B9"/>
<path d="M73.9336 67.9773C73.8861 68.3216 73.815 68.6065 73.7201 68.9093C73.6252 69.2061 73.5066 69.4969 73.3643 69.7818C73.0797 70.3517 72.6883 70.8978 72.1724 71.3489C71.6506 71.7941 70.9983 72.1384 70.3045 72.2928C69.9606 72.3343 69.6048 72.4055 69.2668 72.3759C69.0948 72.3699 68.9228 72.3699 68.7568 72.3462L68.2646 72.2512C66.9423 72.0078 65.7148 71.0818 65.0625 69.954C64.7126 69.396 64.4992 68.7905 64.345 68.191C64.2679 67.8883 64.2145 67.5855 64.179 67.2828C64.1434 66.9741 64.1256 66.6833 64.1374 66.339C64.1493 66.0125 64.4162 65.7632 64.7423 65.7691C65.021 65.7751 65.2523 65.9828 65.2997 66.244L65.3056 66.2915C65.3471 66.5111 65.4183 66.7842 65.4835 67.0276C65.5606 67.2769 65.6318 67.5203 65.7326 67.7577C65.9164 68.2326 66.1477 68.6778 66.4264 69.0577C66.9897 69.8234 67.7309 70.3398 68.6323 70.5001L68.9703 70.5595C69.083 70.5773 69.1897 70.5654 69.3024 70.5773C69.5277 70.6069 69.7352 70.5535 69.9487 70.5476C70.3579 70.4585 70.7433 70.3042 71.0991 70.0371C71.4549 69.7819 71.781 69.4316 72.0597 69.0221C72.1961 68.8202 72.3385 68.6065 72.4511 68.381C72.5756 68.1673 72.6883 67.912 72.7832 67.7102L72.8128 67.6449C72.9433 67.3481 73.2932 67.2175 73.5837 67.3481C73.8387 67.4668 73.9692 67.7221 73.9336 67.9773Z" fill="#9195B9"/>
<path d="M68.9761 63.2459C69.1302 64.3381 67.8375 65.5075 66.6219 66.3445C65.3529 67.223 63.8171 67.4367 62.3524 66.944C60.953 66.4692 59.3934 65.7034 59.2392 64.6112C58.7767 61.3167 68.5135 59.9515 68.9761 63.2459Z" fill="#9195B9"/>
<g opacity="0.5">
<path d="M65.9518 63.0143C65.9933 63.3289 65.4714 63.6851 64.9793 63.9522C64.4634 64.2253 63.8585 64.3143 63.2893 64.1897C62.7437 64.0709 62.1389 63.8751 62.0973 63.5604C61.955 62.6048 65.8154 62.0646 65.9518 63.0143Z" fill="white"/>
</g>
<path d="M44.732 71.1995C48.8723 70.6092 51.7271 66.6051 51.1083 62.2561C50.4895 57.907 46.6315 54.8599 42.4912 55.4502C38.3509 56.0405 35.4961 60.0446 36.1149 64.3937C36.7337 68.7427 40.5917 71.7898 44.732 71.1995Z" fill="#3A3A3A"/>
<path d="M45.3134 68.343C47.0642 68.0933 48.2713 66.3992 48.0095 64.559C47.7477 62.7187 46.1161 61.4293 44.3653 61.6789C42.6145 61.9285 41.4074 63.6227 41.6693 65.4629C41.9311 67.3031 43.5626 68.5926 45.3134 68.343Z" fill="white"/>
<path d="M41.1159 62.3366C42.1274 62.1923 42.8251 61.2151 42.6741 60.1538C42.5231 59.0925 41.5806 58.349 40.569 58.4933C39.5575 58.6375 38.8598 59.6147 39.0108 60.676C39.1618 61.7373 40.1043 62.4808 41.1159 62.3366Z" fill="white"/>
<path d="M85.2391 65.4256C89.3794 64.8353 92.2342 60.8312 91.6154 56.4821C90.9966 52.1331 87.1386 49.086 82.9983 49.6763C78.858 50.2666 76.0032 54.2707 76.622 58.6197C77.2407 62.9688 81.0988 66.0159 85.2391 65.4256Z" fill="#3A3A3A"/>
<path d="M85.8193 62.5632C87.5701 62.3136 88.7772 60.6194 88.5153 58.7792C88.2535 56.9389 86.622 55.6495 84.8712 55.8991C83.1204 56.1487 81.9133 57.8429 82.1751 59.6831C82.4369 61.5233 84.0685 62.8128 85.8193 62.5632Z" fill="white"/>
<path d="M81.6234 56.5612C82.635 56.4169 83.3326 55.4397 83.1816 54.3784C83.0306 53.3171 82.0882 52.5736 81.0766 52.7179C80.065 52.8621 79.3674 53.8394 79.5184 54.9007C79.6694 55.9619 80.6119 56.7054 81.6234 56.5612Z" fill="white"/>
<path d="M23.4111 72.5477C23.2094 72.4706 22.9782 72.3874 22.7588 72.3103C22.5394 72.2272 22.3081 72.156 22.0828 72.0847C21.8574 72.0076 21.6262 71.9423 21.3949 71.8829C21.1636 71.8235 20.9383 71.7464 20.707 71.6929C19.782 71.4614 18.851 71.2418 17.9081 71.0875C16.0284 70.7669 14.119 70.5592 12.2095 70.5414C11.7292 70.5176 11.2548 70.5592 10.7745 70.5592L10.057 70.5711C9.81981 70.577 9.58261 70.6067 9.33949 70.6185C8.8651 70.6542 8.38478 70.6957 7.90446 70.7254L6.47536 70.9094C5.51472 71.0044 4.58374 71.2478 3.63496 71.408L3.27917 71.4733L2.9293 71.5624L2.22958 71.7404L0.824202 72.0907L0.788623 72.0966C0.509919 72.1678 0.231216 71.9957 0.165987 71.7226C0.100759 71.4614 0.249005 71.1943 0.503989 71.1112L1.9153 70.6363L2.62688 70.4048L2.98267 70.2861L3.34439 70.1912C3.82471 70.0665 4.31096 69.9478 4.79721 69.8291C5.04034 69.7756 5.27753 69.7044 5.52658 69.6628L6.26189 69.5323L7.73842 69.2829L9.22682 69.1286C9.47587 69.1049 9.72493 69.0752 9.97398 69.0633L10.7211 69.0336C11.2193 69.0218 11.7233 68.9802 12.2214 68.998L13.7217 69.0396C14.2198 69.0633 14.7179 69.1167 15.2219 69.1583C15.72 69.1939 16.2181 69.283 16.7103 69.3482C17.2084 69.4135 17.7006 69.5204 18.1868 69.6213C20.1556 70.0428 22.059 70.6423 23.8736 71.6217C24.1226 71.7582 24.2175 72.0669 24.0811 72.3222C23.9566 72.5537 23.6779 72.6546 23.4407 72.5596L23.4111 72.5477Z" fill="#9195B9"/>
<path d="M25.7236 79.7718C24.9053 79.7897 24.0455 79.849 23.2034 79.9321C22.3614 80.0152 21.5253 80.1221 20.6892 80.2645C19.0288 80.5435 17.3803 80.9175 15.803 81.4695C15.0143 81.7426 14.2315 82.0513 13.4784 82.4074C13.0989 82.5796 12.7313 82.7814 12.3636 82.9713C12.0019 83.1791 11.6343 83.375 11.2903 83.6065C9.87309 84.485 8.59817 85.5713 7.46557 86.8119L7.45964 86.8178C7.26988 87.0256 6.94374 87.0434 6.73026 86.8475C6.53458 86.6694 6.51086 86.3667 6.66503 86.1589C7.73241 84.7284 9.04291 83.4581 10.5194 82.443C11.2547 81.9325 12.0256 81.4695 12.8321 81.0718C13.6326 80.6682 14.4569 80.312 15.2989 80.0212C16.983 79.4216 18.7204 79.012 20.4816 78.7983C22.2487 78.5847 24.004 78.5312 25.7948 78.7449C26.0794 78.7805 26.281 79.0358 26.2454 79.3207C26.2158 79.5819 25.9964 79.7718 25.7473 79.7778L25.7236 79.7718Z" fill="#9195B9"/>
<path d="M105.605 59.9757C107.075 58.5273 108.742 57.4232 110.509 56.4675C110.953 56.2301 111.392 55.9927 111.849 55.7908C112.305 55.589 112.756 55.3634 113.225 55.1913C113.693 55.0073 114.156 54.8173 114.63 54.6571L116.059 54.2C116.533 54.0457 117.026 53.9388 117.512 53.8142L118.241 53.6301C118.484 53.5708 118.733 53.5352 118.977 53.4877L120.453 53.2206L121.942 53.0484L122.683 52.9653C122.932 52.9356 123.181 52.9356 123.43 52.9238C123.928 52.9 124.426 52.8763 124.924 52.8644L125.298 52.8525L125.671 52.8644L126.419 52.8882L127.907 52.9475C128.192 52.9594 128.411 53.1968 128.399 53.4817C128.387 53.7489 128.174 53.9626 127.907 53.9744H127.871L126.425 54.0338L125.701 54.0575L125.339 54.0694L124.978 54.105C124.023 54.2178 123.056 54.2415 122.113 54.4196L120.69 54.6393C120.222 54.7461 119.753 54.8411 119.285 54.9361C119.054 54.9895 118.816 55.0251 118.585 55.0904L117.891 55.2803C117.435 55.4169 116.96 55.5118 116.51 55.6662C114.677 56.2182 112.91 56.9543 111.191 57.7853C110.331 58.1949 109.495 58.6698 108.67 59.1506C108.463 59.2693 108.267 59.4058 108.06 59.5245C107.852 59.6492 107.656 59.7739 107.455 59.9104C107.253 60.041 107.058 60.1775 106.868 60.314C106.678 60.4506 106.476 60.593 106.31 60.7236L106.281 60.7474C106.055 60.9195 105.735 60.8839 105.557 60.6583C105.397 60.4506 105.421 60.1538 105.605 59.9757Z" fill="#9195B9"/>
<path d="M105.747 67.342C107.408 66.6356 109.11 66.1963 110.865 65.9114C112.614 65.6265 114.399 65.5315 116.184 65.6384C117.073 65.6799 117.963 65.7927 118.846 65.9589C119.73 66.1132 120.596 66.3447 121.45 66.6297C123.152 67.1936 124.764 68.0483 126.188 69.1168C126.413 69.289 126.46 69.6095 126.288 69.841C126.128 70.0547 125.832 70.1081 125.612 69.9716L125.601 69.9657C124.166 69.0931 122.636 68.4045 121.035 67.9593C120.637 67.8347 120.228 67.7515 119.825 67.6506C119.416 67.5735 119.007 67.4844 118.597 67.4251C117.773 67.2885 116.943 67.2114 116.107 67.1698C114.435 67.0867 112.751 67.1876 111.078 67.3835C110.242 67.4844 109.406 67.615 108.576 67.7694C107.746 67.9237 106.904 68.1077 106.115 68.3155L106.085 68.3214C105.813 68.3926 105.528 68.2324 105.457 67.9534C105.386 67.6981 105.516 67.4429 105.747 67.342Z" fill="#9195B9"/>
<path d="M57.0572 62.6231C56.5591 62.6231 56.1203 62.261 56.0432 61.7564L54.9936 55.1675C54.6674 53.1374 55.1537 51.0955 56.3634 49.4334C57.5731 47.7654 59.352 46.6732 61.386 46.3467C65.5784 45.6759 69.5336 48.5489 70.2037 52.7457L71.2533 59.3346C71.3422 59.8985 70.9627 60.4268 70.3994 60.5158C69.836 60.6049 69.3083 60.225 69.2193 59.661L68.1697 53.0721C67.6776 49.9973 64.7838 47.896 61.7121 48.3887C60.2237 48.6261 58.9192 49.4275 58.0356 50.6503C57.1521 51.8731 56.7963 53.363 57.0335 54.8529L58.083 61.4418C58.172 62.0057 57.7925 62.534 57.2291 62.6231C57.1639 62.6171 57.1105 62.6231 57.0572 62.6231Z" fill="#9195B9"/>
<path d="M42.2267 81.3032C41.3373 81.4457 40.4537 81.5169 39.582 81.5288C37.9098 81.5466 36.2732 81.327 34.7136 80.8996C33.8182 80.6562 32.9406 80.3416 32.1045 79.9617C28.7185 78.4362 25.8485 75.8778 23.9568 72.6189C22.8835 70.7669 22.1304 68.6953 21.7746 66.4574C20.221 56.6987 26.8625 47.5336 36.6052 45.9784C37.1389 45.8953 37.6785 45.83 38.2063 45.7944C42.0548 45.5273 45.7491 46.5186 48.8445 48.4478C49.6331 48.9345 50.3803 49.4865 51.08 50.092C52.3194 51.1545 53.4164 52.3952 54.3237 53.7782C55.6935 55.8439 56.6482 58.2243 57.0633 60.8301C58.611 70.577 51.9754 79.748 42.2267 81.3032Z" fill="#9195B9"/>
<g opacity="0.5">
<path d="M48.8384 48.4418L32.0984 79.9617C28.7125 78.4362 25.8424 75.8778 23.9508 72.6189L38.2003 45.7944C42.0488 45.5273 45.7431 46.5186 48.8384 48.4418Z" fill="white"/>
</g>
<g opacity="0.5">
<path d="M54.3177 53.7727L39.5761 81.5292C37.9038 81.547 36.2672 81.3273 34.7076 80.8999L51.0741 50.0864C52.3134 51.149 53.4104 52.3896 54.3177 53.7727Z" fill="white"/>
</g>
<path d="M39.3742 82.5621C35.4249 82.5621 31.5824 81.3215 28.321 78.959C24.2353 75.991 21.5431 71.6103 20.7485 66.6182C19.1059 56.3193 26.1447 46.5962 36.4389 44.9579C46.7332 43.3136 56.4404 50.3596 58.077 60.6644C59.7196 70.9633 52.6808 80.6864 42.3866 82.3247C41.3785 82.485 40.3704 82.5621 39.3742 82.5621ZM39.4217 46.7802C38.544 46.7802 37.6546 46.8514 36.7592 46.9939C27.5916 48.4601 21.3178 57.1147 22.7825 66.2917C23.4881 70.7377 25.8838 74.6436 29.5247 77.2851C33.1657 79.9266 37.619 80.9891 42.0604 80.2827C51.228 78.8165 57.5018 70.1619 56.0371 60.9849C54.7207 52.7043 47.5456 46.7802 39.4217 46.7802Z" fill="#9195B9"/>
<path d="M100.196 68.605C107.173 61.6205 107.173 50.2965 100.196 43.312C93.2184 36.3275 81.906 36.3275 74.9287 43.312C67.9514 50.2965 67.9514 61.6205 74.9287 68.605C81.906 75.5895 93.2184 75.5895 100.196 68.605Z" fill="#9195B9"/>
<path d="M63.7521 139.256C61.6411 139.345 59.5775 139.239 57.508 139.031C55.4385 138.823 53.3808 138.485 51.3469 138.028C50.3269 137.82 49.3248 137.523 48.3108 137.256L46.8164 136.781C46.5674 136.698 46.3183 136.627 46.0693 136.538L45.334 136.265C43.3534 135.576 41.4558 134.656 39.5879 133.682C39.0839 133.421 38.8823 132.798 39.1432 132.293C39.4041 131.789 40.0268 131.587 40.5308 131.848C40.5427 131.854 40.5545 131.86 40.5664 131.866L40.6079 131.89C42.3453 132.881 44.1124 133.837 45.9863 134.579L46.6801 134.87C46.9113 134.965 47.1544 135.042 47.3857 135.131L48.8089 135.647C49.7754 135.944 50.7302 136.271 51.7145 136.514C53.6654 137.042 55.6519 137.458 57.6622 137.743C59.6665 138.028 61.7123 138.212 63.7047 138.218H63.7284C64.0131 138.218 64.2443 138.449 64.2443 138.734C64.2443 139.019 64.0249 139.244 63.7521 139.256Z" fill="#9195B9"/>
<path d="M89.6241 135.006C90.223 134.792 90.8456 134.519 91.4386 134.234C92.0316 133.944 92.6068 133.617 93.1524 133.267C93.7038 132.923 94.2197 132.525 94.706 132.115C95.1922 131.706 95.6192 131.243 96.0106 130.78L96.0343 130.756C96.4019 130.317 97.0542 130.257 97.4871 130.625C97.9259 130.993 97.9852 131.646 97.6175 132.08C97.5938 132.109 97.5582 132.145 97.5286 132.169C96.9771 132.685 96.4019 133.16 95.7852 133.558C95.1744 133.955 94.5459 134.318 93.8995 134.62C93.2532 134.929 92.595 135.196 91.9308 135.428C91.2607 135.659 90.5966 135.855 89.885 136.009C89.6063 136.069 89.3335 135.891 89.2742 135.618C89.2209 135.362 89.3632 135.107 89.6063 135.024L89.6241 135.006Z" fill="#9195B9"/>
<g opacity="0.5">
<path d="M97.0245 40.7607L80.2845 72.2806C76.8985 70.7551 74.0285 68.1967 72.1368 64.9379L86.3863 38.1074C90.2348 37.8403 93.9291 38.8316 97.0245 40.7607Z" fill="white"/>
</g>
<g opacity="0.5">
<path d="M102.504 46.0856L87.762 73.8421C86.0897 73.86 84.4531 73.6403 82.8936 73.2129L99.26 42.3994C100.499 43.4679 101.59 44.7026 102.504 46.0856Z" fill="white"/>
</g>
<path d="M87.5544 74.8746C78.4343 74.8746 70.3815 68.2323 68.899 58.9307C67.2565 48.6318 74.2952 38.9087 84.5895 37.2704C94.8778 35.6261 104.591 42.6721 106.228 52.9769C107.022 57.969 105.83 62.9671 102.865 67.0629C99.9004 71.1528 95.5241 73.8477 90.5371 74.6431C89.535 74.7975 88.5387 74.8746 87.5544 74.8746ZM87.5722 39.0986C86.6946 39.0986 85.8051 39.1699 84.9097 39.3123C75.7421 40.7785 69.4683 49.4331 70.933 58.6101C72.2494 66.8908 79.4245 72.8148 87.5544 72.8148C88.432 72.8148 89.3215 72.7436 90.2169 72.6011C94.6584 71.8948 98.5602 69.4966 101.199 65.852C103.838 62.2073 104.905 57.7494 104.194 53.3034C102.871 45.0168 95.6961 39.0986 87.5722 39.0986Z" fill="#9195B9"/>
<path d="M24.1703 110.022L20.1142 110.324C18.4183 110.449 17.0663 111.802 16.9358 113.506L16.6334 117.566L16.331 113.506C16.2065 111.808 14.8545 110.455 13.1526 110.324L9.09656 110.022L13.1526 109.719C14.8485 109.594 16.2005 108.241 16.331 106.537L16.6334 102.477L16.9358 106.537C17.0604 108.235 18.4124 109.588 20.1142 109.719L24.1703 110.022Z" fill="#9195B9"/>
<path d="M134.519 29.2453L130.463 29.548C128.767 29.6727 127.415 31.0261 127.284 32.7297L126.982 36.7899L126.68 32.7297C126.555 31.032 125.203 29.6786 123.501 29.548L119.445 29.2453L123.501 28.9425C125.197 28.8179 126.549 27.4645 126.68 25.7609L126.982 21.7007L127.284 25.7609C127.409 27.4586 128.761 28.812 130.463 28.9425L134.519 29.2453Z" fill="#9195B9"/>
<path d="M126.413 141.447L124.243 141.607C123.335 141.672 122.612 142.396 122.547 143.304L122.387 145.477L122.226 143.304C122.161 142.396 121.438 141.672 120.531 141.607L118.36 141.447L120.531 141.286C121.438 141.221 122.161 140.497 122.226 139.589L122.387 137.416L122.547 139.589C122.612 140.497 123.335 141.221 124.243 141.286L126.413 141.447Z" fill="#9195B9"/>
<path d="M8.24263 26.853L6.02486 27.0192C5.09387 27.0905 4.35857 27.8265 4.28741 28.7585L4.12138 30.9785L3.95534 28.7585C3.88418 27.8265 3.14888 27.0905 2.21789 27.0192L0.00012207 26.853L2.21789 26.6868C3.14888 26.6156 3.88418 25.8795 3.95534 24.9476L4.12138 22.7275L4.28741 24.9476C4.35857 25.8795 5.09387 26.6156 6.02486 26.6868L8.24263 26.853Z" fill="#9195B9"/>
</svg>
