<svg width="18" height="18" viewBox="0 0 18 18" fill="none" xmlns="http://www.w3.org/2000/svg">
<path opacity="0.4" d="M9 16.5C13.1421 16.5 16.5 13.1421 16.5 9C16.5 4.85786 13.1421 1.5 9 1.5C4.85786 1.5 1.5 4.85786 1.5 9C1.5 13.1421 4.85786 16.5 9 16.5Z" fill="#54CC7C"/>
<path d="M7.93499 11.6852C7.78499 11.6852 7.64249 11.6252 7.53749 11.5202L5.41499 9.3977C5.19749 9.1802 5.19749 8.8202 5.41499 8.6027C5.63249 8.3852 5.99249 8.3852 6.20999 8.6027L7.93499 10.3277L11.79 6.4727C12.0075 6.2552 12.3675 6.2552 12.585 6.4727C12.8025 6.6902 12.8025 7.05019 12.585 7.26769L8.33249 11.5202C8.22749 11.6252 8.08499 11.6852 7.93499 11.6852Z" fill="#54CC7C"/>
</svg>
