<svg width="18" height="16" viewBox="0 0 18 16" fill="none" xmlns="http://www.w3.org/2000/svg">
<path opacity="0.4" d="M17.3337 11.2837C17.3337 13.6087 15.467 15.492 13.142 15.5003H13.1337H4.87533C2.55866 15.5003 0.666992 13.6253 0.666992 11.3003V11.292C0.666992 11.292 0.671992 7.60366 0.678659 5.74866C0.679492 5.40033 1.07949 5.20533 1.35199 5.42199C3.33199 6.99283 6.87283 9.85699 6.91699 9.89449C7.50866 10.3687 8.25866 10.6362 9.02532 10.6362C9.79199 10.6362 10.542 10.3687 11.1337 9.88533C11.1778 9.85616 14.6395 7.07783 16.6495 5.48116C16.9228 5.26366 17.3245 5.45866 17.3253 5.80616C17.3337 7.64699 17.3337 11.2837 17.3337 11.2837Z" fill="#6576FF"/>
<path d="M16.8967 2.72809C16.1751 1.36809 14.7551 0.499756 13.1917 0.499756H4.87507C3.31173 0.499756 1.89173 1.36809 1.17007 2.72809C1.0084 3.03226 1.08507 3.41142 1.35423 3.62642L7.54173 8.57559C7.97507 8.92559 8.50007 9.09976 9.02507 9.09976C9.0284 9.09976 9.0309 9.09976 9.0334 9.09976C9.0359 9.09976 9.03923 9.09976 9.04173 9.09976C9.56673 9.09976 10.0917 8.92559 10.5251 8.57559L16.7126 3.62642C16.9817 3.41142 17.0584 3.03226 16.8967 2.72809Z" fill="#6576FF"/>
</svg>
