<svg width="19" height="19" viewBox="0 0 19 19" fill="none" xmlns="http://www.w3.org/2000/svg">
<path fill-rule="evenodd" clip-rule="evenodd" d="M12.9062 2.17676H6.05672C3.67222 2.17676 2.17676 3.86617 2.17676 6.25701V12.7059C2.17676 15.0968 3.66588 16.7862 6.05672 16.7862H12.9023C15.2971 16.7862 16.7854 15.0968 16.7854 12.7059V6.25701C16.7885 3.86617 15.2994 2.17676 12.9062 2.17676Z" stroke="white" stroke-linecap="round" stroke-linejoin="round"/>
<path fill-rule="evenodd" clip-rule="evenodd" d="M8.47313 6.95458C8.47313 7.76208 7.81921 8.416 7.01171 8.416C6.205 8.416 5.55029 7.76208 5.55029 6.95458C5.55029 6.14708 6.205 5.49316 7.01171 5.49316C7.81842 5.49396 8.47233 6.14787 8.47313 6.95458Z" stroke="white" stroke-linecap="round" stroke-linejoin="round"/>
<path d="M16.7889 11.8362C16.0582 11.0841 14.653 9.56494 13.125 9.56494C11.5963 9.56494 10.7152 12.9161 9.24508 12.9161C7.77496 12.9161 6.43942 11.4008 5.26142 12.3722C4.08342 13.3428 2.96875 15.3275 2.96875 15.3275" stroke="white" stroke-linecap="round" stroke-linejoin="round"/>
</svg>
