<svg width="73" height="70" viewBox="0 0 73 70" fill="none" xmlns="http://www.w3.org/2000/svg">
<path d="M5.59436e-06 38.9431C0.124596 36.3012 1.55953 33.9258 4.4831 32.6401C7.44318 31.3372 10.2271 31.866 12.6309 34.0005C16.2934 37.2522 19.9065 40.5593 23.5411 43.843C24.2371 44.4827 24.9287 45.1032 25.6269 45.728C26.716 46.7046 27.6332 46.6577 28.6106 45.5638C34.4491 39.0149 40.2855 32.4659 46.1198 25.917C53.5408 17.5926 60.9625 9.26889 68.3849 0.945898C69.1711 0.0631353 69.9659 -0.188473 70.8767 0.135633C71.708 0.429887 72.3331 1.20177 72.2794 2.08027C72.2296 2.57637 72.0617 3.05361 71.7896 3.47265C64.4717 15.2044 57.1446 26.9277 49.8081 38.6424C44.0483 47.8539 38.2878 57.0646 32.5266 66.2746C31.3365 68.1809 29.7083 69.4858 27.4506 69.876C24.7612 70.3409 22.51 69.4943 20.7915 67.409C15.7463 61.3092 10.7176 55.2031 5.70537 49.0906C4.39789 47.5013 3.0897 45.9121 1.78078 44.3228C0.614365 42.907 -0.00214251 41.295 5.59436e-06 38.9431Z" fill="#54CC7C"/>
</svg>
