<svg width="20" height="20" viewBox="0 0 20 20" fill="none" xmlns="http://www.w3.org/2000/svg">
<path d="M8.13314 11.9722C7.65397 11.4938 7.3623 10.8438 7.3623 10.1147C7.3623 8.65382 8.53897 7.47632 9.99897 7.47632C10.7215 7.47632 11.3865 7.76882 11.8573 8.24715" stroke="#99A6B9" stroke-width="1.5" stroke-linecap="round" stroke-linejoin="round"/>
<path d="M12.5868 10.5823C12.3935 11.6573 11.5468 12.5056 10.4727 12.7006" stroke="#99A6B9" stroke-width="1.5" stroke-linecap="round" stroke-linejoin="round"/>
<path d="M5.54518 14.5602C4.22268 13.5219 3.10268 12.0052 2.29102 10.1144C3.11102 8.21523 4.23852 6.69023 5.56935 5.64356C6.89185 4.5969 8.41768 4.02856 9.99935 4.02856C11.5902 4.02856 13.1152 4.60523 14.446 5.6594" stroke="#99A6B9" stroke-width="1.5" stroke-linecap="round" stroke-linejoin="round"/>
<path d="M16.2063 7.49219C16.7796 8.25385 17.2838 9.13302 17.708 10.1139C16.0688 13.9114 13.1721 16.1989 9.99965 16.1989C9.28048 16.1989 8.57132 16.0822 7.88965 15.8547" stroke="#99A6B9" stroke-width="1.5" stroke-linecap="round" stroke-linejoin="round"/>
<path d="M16.5718 3.54126L3.42676 16.6863" stroke="#99A6B9" stroke-width="1.5" stroke-linecap="round" stroke-linejoin="round"/>
</svg>
