<svg width="20" height="20" viewBox="0 0 20 20" fill="none" xmlns="http://www.w3.org/2000/svg">
<path d="M15.4162 8.33325C16.1062 8.33325 16.6667 8.89379 16.6667 9.58273C16.6667 10.2717 16.1062 10.8333 15.4162 10.8333C14.7262 10.8333 14.1657 10.2717 14.1657 9.58273C14.1657 8.89379 14.7262 8.33325 15.4162 8.33325Z" fill="#424D5B"/>
<path d="M10.4162 8.33325C11.1062 8.33325 11.6667 8.89379 11.6667 9.58273C11.6667 10.2717 11.1062 10.8333 10.4162 10.8333C9.72625 10.8333 9.1657 10.2717 9.1657 9.58273C9.1657 8.89379 9.72625 8.33325 10.4162 8.33325Z" fill="#424D5B"/>
<path d="M5.41623 8.33325C6.10621 8.33325 6.66675 8.89379 6.66675 9.58273C6.66675 10.2717 6.10621 10.8333 5.41623 10.8333C4.72625 10.8333 4.1657 10.2717 4.1657 9.58273C4.1657 8.89379 4.72625 8.33325 5.41623 8.33325Z" fill="#424D5B"/>
</svg>
