<svg width="20" height="20" viewBox="0 0 20 20" fill="none" xmlns="http://www.w3.org/2000/svg">
<path opacity="0.4" d="M18.3327 13.2837C18.3327 15.6087 16.466 17.492 14.141 17.5003H14.1327H5.87435C3.55768 17.5003 1.66602 15.6253 1.66602 13.3003V13.292C1.66602 13.292 1.67102 9.60366 1.67768 7.74866C1.67852 7.40033 2.07852 7.20533 2.35102 7.42199C4.33102 8.99283 7.87185 11.857 7.91602 11.8945C8.50768 12.3687 9.25768 12.6362 10.0243 12.6362C10.791 12.6362 11.541 12.3687 12.1327 11.8853C12.1768 11.8562 15.6385 9.07783 17.6485 7.48116C17.9219 7.26366 18.3235 7.45866 18.3243 7.80616C18.3327 9.64699 18.3327 13.2837 18.3327 13.2837Z" fill="#6576FF"/>
<path d="M17.8967 4.72809C17.1751 3.36809 15.7551 2.49976 14.1917 2.49976H5.87507C4.31173 2.49976 2.89173 3.36809 2.17007 4.72809C2.0084 5.03226 2.08507 5.41142 2.35423 5.62642L8.54173 10.5756C8.97507 10.9256 9.50007 11.0998 10.0251 11.0998C10.0284 11.0998 10.0309 11.0998 10.0334 11.0998C10.0359 11.0998 10.0392 11.0998 10.0417 11.0998C10.5667 11.0998 11.0917 10.9256 11.5251 10.5756L17.7126 5.62642C17.9817 5.41142 18.0584 5.03226 17.8967 4.72809Z" fill="#6576FF"/>
</svg>
