<svg width="16" height="18" viewBox="0 0 16 18" fill="none" xmlns="http://www.w3.org/2000/svg">
<path fill-rule="evenodd" clip-rule="evenodd" d="M4.47432 6.26172H11.5263C13.4909 6.26172 15.0837 7.81939 15.0837 9.7406V13.8546C15.0837 15.7759 13.4909 17.3335 11.5263 17.3335H4.47432C2.50979 17.3335 0.916992 15.7759 0.916992 13.8546V9.7406C0.916992 7.81939 2.50979 6.26172 4.47432 6.26172ZM7.99609 13.4414C8.41102 13.4414 8.74126 13.1185 8.74126 12.7127V10.8743C8.74126 10.4768 8.41102 10.1538 7.99609 10.1538C7.58964 10.1538 7.25939 10.4768 7.25939 10.8743V12.7127C7.25939 13.1185 7.58964 13.4414 7.99609 13.4414Z" fill="#FB66C3"/>
<path opacity="0.4" d="M12.603 5.16337V6.38897C12.3066 6.30616 11.9933 6.26476 11.6715 6.26476H11.1211V5.16337C11.1211 3.48232 9.7239 2.11594 8.00493 2.11594C6.28596 2.11594 4.88877 3.47403 4.88031 5.14681V6.26476H4.33837C4.00812 6.26476 3.69481 6.30616 3.39844 6.39726V5.16337C3.40691 2.67905 5.46459 0.666748 7.988 0.666748C10.5453 0.666748 12.603 2.67905 12.603 5.16337Z" fill="#FB66C3"/>
</svg>
