<svg width="20" height="20" viewBox="0 0 20 20" fill="none" xmlns="http://www.w3.org/2000/svg">
<path opacity="0.4" d="M14.7031 4.446C14.7031 1.995 12.6433 0 10.1117 0H5.07939C2.55395 0 0.499312 1.99 0.499312 4.436V15.552C0.499312 18.004 2.55808 20 5.08971 20H10.122C12.6475 20 14.7031 18.009 14.7031 15.562V14.622V4.446Z" fill="#FF3659"/>
<path d="M5.9626 9.45382L8.93051 6.54482C9.23726 6.24482 9.73089 6.24482 10.0366 6.54682C10.3413 6.84882 10.3403 7.33582 10.0346 7.63582L8.40945 9.22882H18.7179C19.1496 9.22882 19.5 9.57382 19.5 9.99982C19.5 10.4248 19.1496 10.7688 18.7179 10.7688H8.40945L10.0346 12.3628C10.3403 12.6628 10.3413 13.1498 10.0366 13.4518C9.88325 13.6028 9.68315 13.6788 9.48204 13.6788C9.28296 13.6788 9.08287 13.6028 8.93051 13.4538L5.9626 10.5448C5.81533 10.3998 5.73204 10.2038 5.73204 9.99982C5.73204 9.79482 5.81533 9.59882 5.9626 9.45382Z" fill="#FF3659"/>
</svg>
