<svg width="16" height="20" viewBox="0 0 16 20" fill="none" xmlns="http://www.w3.org/2000/svg">
<path d="M15.3125 9.64937C14.625 8.79597 14.3125 8.05642 14.3125 6.8V6.3728C14.3125 4.73552 13.958 3.6806 13.1873 2.62569C11.9993 0.987405 9.99942 0 8.04163 0H7.95837C6.04174 0 4.10453 0.942065 2.896 2.51385C2.08313 3.58992 1.68746 4.69018 1.68746 6.3728V6.8C1.68746 8.05642 1.39562 8.79597 0.687518 9.64937C0.166501 10.2781 0 11.0861 0 11.9607C0 12.8363 0.27033 13.6655 0.812862 14.3395C1.52096 15.1476 2.5209 15.6635 3.54236 15.7531C5.02122 15.9325 6.50009 16 8.00047 16C9.49991 16 10.9788 15.8872 12.4586 15.7531C13.4791 15.6635 14.479 15.1476 15.1871 14.3395C15.7287 13.6655 16 12.8363 16 11.9607C16 11.0861 15.8335 10.2781 15.3125 9.64937" fill="#6576FF"/>
<path opacity="0.4" d="M10.0838 17.0842C9.56884 16.9719 6.43116 16.9719 5.91623 17.0842C5.47603 17.1881 5 17.4296 5 17.9594C5.02559 18.4648 5.3153 18.9108 5.7166 19.1937L5.71558 19.1948C6.2346 19.608 6.84371 19.8707 7.48149 19.965C7.82136 20.0127 8.16738 20.0106 8.51954 19.965C9.15629 19.8707 9.7654 19.608 10.2844 19.1948L10.2834 19.1937C10.6847 18.9108 10.9744 18.4648 11 17.9594C11 17.4296 10.524 17.1881 10.0838 17.0842Z" fill="#6576FF"/>
</svg>
