<svg width="20" height="21" viewBox="0 0 20 21" fill="none" xmlns="http://www.w3.org/2000/svg">
<path opacity="0.4" d="M9.99935 18.771C14.6017 18.771 18.3327 15.1388 18.3327 10.6583C18.3327 6.17781 14.6017 2.54565 9.99935 2.54565C5.39698 2.54565 1.66602 6.17781 1.66602 10.6583C1.66602 15.1388 5.39698 18.771 9.99935 18.771Z" fill="#6576FF"/>
<path d="M10 6.54517C8.275 6.54517 6.875 7.90809 6.875 9.58741C6.875 11.2343 8.2 12.5729 9.95833 12.6215C9.98333 12.6215 10.0167 12.6215 10.0333 12.6215C10.05 12.6215 10.075 12.6215 10.0917 12.6215C10.1 12.6215 10.1083 12.6215 10.1083 12.6215C11.7917 12.5648 13.1167 11.2343 13.125 9.58741C13.125 7.90809 11.725 6.54517 10 6.54517Z" fill="#6576FF"/>
<path d="M15.6496 16.6212C14.1663 17.9517 12.1829 18.771 9.99961 18.771C7.81628 18.771 5.83294 17.9517 4.34961 16.6212C4.54961 15.8829 5.09128 15.2096 5.88294 14.6904C8.15794 13.2139 11.8579 13.2139 14.1163 14.6904C14.9163 15.2096 15.4496 15.8829 15.6496 16.6212Z" fill="#6576FF"/>
</svg>
