<svg width="20" height="22" viewBox="0 0 20 22" fill="none" xmlns="http://www.w3.org/2000/svg">
<path d="M9.98827 13.8302C11.5927 13.8302 12.8906 12.5802 12.8906 11.0102C12.8906 9.44018 11.5927 8.18018 9.98827 8.18018C8.38379 8.18018 7.11657 9.44018 7.11657 11.0102C7.11657 12.5802 8.38379 13.8302 9.98827 13.8302Z" fill="#6576FF"/>
<path opacity="0.4" d="M0.284071 13.607C0.488462 13.277 0.778913 12.947 1.15542 12.738C1.45663 12.584 1.65027 12.331 1.82239 12.034C2.37102 11.088 2.04829 9.845 1.13391 9.284C0.0581646 8.657 -0.286074 7.26 0.337858 6.171L1.05861 4.873C1.67178 3.784 3.01646 3.399 4.08145 4.037C5.02811 4.565 6.2437 4.213 6.79233 3.278C6.96445 2.97 7.06126 2.64 7.03975 2.31C7.00748 1.881 7.13657 1.474 7.3302 1.144C7.72822 0.462 8.44897 0 9.24502 0H10.7618C11.5471 0.022 12.2679 0.462 12.6659 1.144C12.8703 1.474 12.9886 1.881 12.9671 2.31C12.9456 2.64 13.0424 2.97 13.2145 3.278C13.7632 4.213 14.9787 4.565 15.9146 4.037C16.9904 3.399 18.3243 3.784 18.9482 4.873L19.669 6.171C20.2822 7.26 19.9379 8.657 18.8729 9.284C17.9586 9.845 17.6358 11.088 18.1737 12.034C18.3566 12.331 18.5502 12.584 18.8514 12.738C19.2172 12.947 19.5399 13.277 19.712 13.607C20.11 14.289 20.0885 15.147 19.6905 15.862L18.9482 17.182C18.5502 17.886 17.808 18.326 17.0334 18.326C16.6677 18.326 16.2374 18.216 15.8931 17.996C15.6242 17.809 15.3015 17.743 14.9465 17.743C13.8815 17.743 12.9886 18.656 12.9671 19.745C12.9671 21.01 11.9774 22 10.7296 22H9.26654C8.02943 22 7.03975 21.01 7.03975 19.745C7.00748 18.656 6.11461 17.743 5.04962 17.743C4.70538 17.743 4.38266 17.809 4.10297 17.996C3.75873 18.216 3.33919 18.326 2.96268 18.326C2.1989 18.326 1.45663 17.886 1.05861 17.182L0.305586 15.862C-0.0816822 15.125 -0.113955 14.289 0.284071 13.607Z" fill="#6576FF"/>
</svg>
