<svg width="14" height="14" viewBox="0 0 14 14" fill="none" xmlns="http://www.w3.org/2000/svg">
<path d="M11.375 4.66667C12.1804 4.66667 12.8333 4.01375 12.8333 3.20833C12.8333 2.40292 12.1804 1.75 11.375 1.75C10.5696 1.75 9.91666 2.40292 9.91666 3.20833C9.91666 4.01375 10.5696 4.66667 11.375 4.66667Z" fill="#FF3659"/>
<path d="M11.375 4.66667C12.1804 4.66667 12.8333 4.01375 12.8333 3.20833C12.8333 2.40292 12.1804 1.75 11.375 1.75C10.5696 1.75 9.91666 2.40292 9.91666 3.20833C9.91666 4.01375 10.5696 4.66667 11.375 4.66667Z" fill="#FF3659"/>
<path opacity="0.4" d="M12.0867 5.4307C12.4542 5.31403 12.8333 5.59987 12.8333 5.9907V9.04736C12.8333 11.089 11.6667 11.964 9.91666 11.964H4.08332C2.33332 11.964 1.16666 11.089 1.16666 9.04736V4.96403C1.16666 2.92236 2.33332 2.04736 4.08332 2.04736H8.52248C8.90165 2.04736 9.15832 2.39737 9.08832 2.76487C9.01832 3.10904 9.02999 3.47653 9.13499 3.8557C9.35083 4.63737 9.98665 5.26153 10.7683 5.4657C11.2292 5.58236 11.6783 5.55903 12.0867 5.4307Z" fill="#FF3659"/>
<path d="M7 7.50761C6.51 7.50761 6.01417 7.35595 5.635 7.04678L3.80917 5.58845C3.6225 5.43678 3.5875 5.16261 3.73917 4.97595C3.89084 4.78928 4.165 4.75428 4.35166 4.90595L6.1775 6.36428C6.62083 6.72012 7.37333 6.72012 7.81667 6.36428L8.50499 5.81595C8.69166 5.66428 8.97167 5.69345 9.11751 5.88595C9.26917 6.07261 9.24001 6.35261 9.04751 6.49845L8.35916 7.04678C7.98583 7.35595 7.49 7.50761 7 7.50761Z" fill="#FF3659"/>
</svg>
