<svg width="20" height="21" viewBox="0 0 20 21" fill="none" xmlns="http://www.w3.org/2000/svg">
<path d="M10.0589 8.01598C10.0255 8.01598 9.97552 8.01598 9.93385 8.01598C9.05885 7.98353 8.36719 7.29396 8.36719 6.43402C8.36719 5.55785 9.09218 4.85205 9.99218 4.85205C10.8922 4.85205 11.6172 5.56596 11.6172 6.43402C11.6255 7.29396 10.9339 7.99165 10.0589 8.01598Z" fill="#6576FF"/>
<path d="M7.7082 10.4578C6.59987 11.1798 6.59987 12.3562 7.7082 13.0782C8.96654 13.8976 11.0332 13.8976 12.2915 13.0782C13.3999 12.3562 13.3999 11.1798 12.2915 10.4578C11.0332 9.64655 8.97487 9.64655 7.7082 10.4578Z" fill="#6576FF"/>
<path opacity="0.4" d="M15 2.37769H5C3.61667 2.37769 2.5 3.45667 2.5 4.78714V13.638C2.5 14.9685 3.61667 16.0475 5 16.0475H5.63334C6.3 16.0475 6.93333 16.299 7.4 16.7533L8.825 18.1243C9.475 18.749 10.5333 18.749 11.1833 18.1243L12.6083 16.7533C13.075 16.299 13.7167 16.0475 14.375 16.0475H15C16.3833 16.0475 17.5 14.9685 17.5 13.638V4.78714C17.5 3.45667 16.3833 2.37769 15 2.37769ZM10 4.85204C10.9 4.85204 11.625 5.56596 11.625 6.43401C11.625 7.29395 10.925 7.98353 10.0583 8.01598C10.025 8.01598 9.975 8.01598 9.93333 8.01598C9.05833 7.98353 8.36667 7.29395 8.36667 6.43401C8.375 5.56596 9.1 4.85204 10 4.85204ZM12.2917 13.0783C11.0333 13.8976 8.96667 13.8976 7.70833 13.0783C6.6 12.3644 6.6 11.1799 7.70833 10.4579C8.975 9.63851 11.0417 9.63851 12.2917 10.4579C13.4 11.1799 13.4 12.3562 12.2917 13.0783Z" fill="#6576FF"/>
</svg>
