<svg width="16" height="20" viewBox="0 0 16 20" fill="none" xmlns="http://www.w3.org/2000/svg">
<g clip-path="url(#clip0_1449_13755)">
<path d="M11.2496 9.0892e-05C11.4583 0.104448 11.5366 0.271419 11.5314 0.506222C11.5209 0.960174 11.5314 1.41934 11.5261 1.8733C11.5261 2.1968 11.3853 2.3429 11.067 2.3429C8.77112 2.3429 6.47527 2.3429 4.17942 2.3429C3.87157 2.3429 3.72547 2.1968 3.72025 1.88373C3.71503 1.40891 3.72547 0.934085 3.71503 0.459261C3.70981 0.24533 3.81417 0.109666 3.98114 -0.00512695C6.40744 9.0892e-05 8.82852 9.0892e-05 11.2496 9.0892e-05Z" fill="#2C3782"/>
<path d="M12.695 1.15332C13.0916 1.17419 13.4568 1.15854 13.8169 1.21072C14.5995 1.33594 15.1944 2.04035 15.2309 2.83347C15.2361 2.89608 15.2361 2.96391 15.2361 3.02653C15.2309 8.05131 15.2257 13.0761 15.2205 18.1009C15.2205 18.8731 14.923 19.4732 14.2186 19.8123C13.9943 19.9219 13.7177 19.9897 13.4673 19.9897C9.55909 20.0002 5.65614 20.0002 1.74798 19.995C0.772241 20.0002 0 19.2279 0 18.247C0 13.1648 0.00521785 8.0774 0.0156535 2.99522C0.0156535 1.91513 0.777459 1.17419 1.85755 1.17419C2.0767 1.17419 2.30107 1.17419 2.55153 1.17419C2.55153 1.36725 2.54109 1.55509 2.55153 1.73772C2.56196 1.95687 2.56718 2.18124 2.61936 2.39517C2.79155 3.03696 3.3916 3.51179 4.05948 3.51179C6.4336 3.517 8.81294 3.52222 11.1871 3.51179C12.0115 3.50657 12.6741 2.81781 12.6898 1.99339C12.7002 1.72728 12.695 1.46117 12.695 1.15332ZM9.91391 16.019C10.5818 16.019 11.2549 16.019 11.9228 16.019C12.3037 16.019 12.5698 15.7789 12.575 15.4398C12.5802 15.0954 12.3089 14.8449 11.9176 14.8449C10.5714 14.8449 9.22515 14.8449 7.87895 14.8449C7.49804 14.8449 7.23193 15.085 7.22672 15.4241C7.2215 15.7685 7.49283 16.019 7.88416 16.019C8.56248 16.019 9.2408 16.019 9.91391 16.019ZM9.90347 8.20263C10.5661 8.20263 11.2288 8.20263 11.8967 8.20263C12.2932 8.20263 12.5594 7.96261 12.5594 7.61823C12.5594 7.26864 12.2932 7.03383 11.8967 7.03383C10.5609 7.03383 9.23037 7.03383 7.8946 7.03383C7.50326 7.03383 7.23193 7.27385 7.23193 7.61823C7.23193 7.96261 7.50326 8.20263 7.8946 8.20263C8.56248 8.20263 9.23559 8.20263 9.90347 8.20263ZM9.90347 10.9368C9.23559 10.9368 8.56248 10.9368 7.8946 10.9368C7.50326 10.9368 7.23193 11.1768 7.23193 11.5264C7.23193 11.8708 7.50326 12.1108 7.89982 12.1108C9.23559 12.1108 10.5661 12.1108 11.9019 12.1108C12.2932 12.1108 12.5646 11.8708 12.5594 11.5212C12.5594 11.1716 12.2932 10.9368 11.8967 10.9368C11.2288 10.9368 10.5661 10.9368 9.90347 10.9368ZM3.96034 11.5942C3.85077 11.4742 3.75685 11.3594 3.65249 11.2655C3.40725 11.0359 3.05244 11.0411 2.82807 11.2655C2.59849 11.4899 2.59327 11.8447 2.82807 12.0899C3.06288 12.3404 3.30811 12.5856 3.55857 12.8204C3.81424 13.0604 4.14297 13.0604 4.39864 12.8152C4.98826 12.236 5.56744 11.6516 6.15184 11.062C6.29794 10.9159 6.36055 10.7333 6.30837 10.5246C6.20402 10.0602 5.66136 9.90886 5.31698 10.2428C4.86825 10.6759 4.42995 11.1194 3.96034 11.5942ZM3.97078 15.492C3.85599 15.3719 3.76207 15.2676 3.65771 15.1685C3.41247 14.9389 3.05766 14.9389 2.83329 15.1632C2.6037 15.3876 2.59849 15.7424 2.82807 15.9877C3.06288 16.2381 3.30811 16.4833 3.55857 16.7182C3.81424 16.9582 4.14297 16.9634 4.39864 16.7129C4.98826 16.1338 5.56744 15.5494 6.15184 14.9597C6.29794 14.8136 6.36055 14.631 6.31359 14.4223C6.26141 14.2032 6.13097 14.0466 5.91182 13.984C5.68745 13.9162 5.48395 13.9683 5.3222 14.1353C4.87347 14.5841 4.43517 15.0276 3.97078 15.492ZM3.95513 7.38865C3.85077 7.26864 3.76207 7.16428 3.66815 7.07036C3.41247 6.82512 3.06288 6.82512 2.82807 7.05992C2.59849 7.29472 2.59849 7.64432 2.84373 7.89999C3.06809 8.1348 3.29768 8.36438 3.53248 8.58875C3.80903 8.86008 4.13253 8.86008 4.4143 8.58875C4.61779 8.39569 4.81085 8.19219 5.00913 7.99392C5.39003 7.61301 5.77615 7.23211 6.15184 6.84599C6.3449 6.64771 6.37621 6.39725 6.2562 6.16245C6.1414 5.93808 5.9066 5.80242 5.65614 5.85982C5.52048 5.89112 5.3796 5.97461 5.27524 6.07375C4.83694 6.49639 4.4143 6.92948 3.95513 7.38865Z" fill="#2C3782"/>
</g>
<defs>
<clipPath id="clip0_1449_13755">
<rect width="15.2361" height="20" fill="white"/>
</clipPath>
</defs>
</svg>
