<svg width="18" height="18" viewBox="0 0 18 18" fill="none" xmlns="http://www.w3.org/2000/svg">
<path d="M7.81562 4.06055C7.81562 4.37466 7.94041 4.67591 8.16252 4.89803C8.38463 5.12014 8.68588 5.24492 9 5.24492C9.31412 5.24492 9.61537 5.12014 9.83748 4.89803C10.0596 4.67591 10.1844 4.37466 10.1844 4.06055C10.1844 3.74643 10.0596 3.44518 9.83748 3.22307C9.61537 3.00095 9.31412 2.87617 9 2.87617C8.68588 2.87617 8.38463 3.00095 8.16252 3.22307C7.94041 3.44518 7.81562 3.74643 7.81562 4.06055ZM7.81562 8.98242C7.81562 9.29654 7.94041 9.59779 8.16252 9.8199C8.38463 10.042 8.68588 10.1668 9 10.1668C9.31412 10.1668 9.61537 10.042 9.83748 9.8199C10.0596 9.59779 10.1844 9.29654 10.1844 8.98242C10.1844 8.66831 10.0596 8.36706 9.83748 8.14494C9.61537 7.92283 9.31412 7.79805 9 7.79805C8.68588 7.79805 8.38463 7.92283 8.16252 8.14494C7.94041 8.36706 7.81562 8.66831 7.81562 8.98242ZM7.81562 13.9043C7.81562 14.2184 7.94041 14.5197 8.16252 14.7418C8.38463 14.9639 8.68588 15.0887 9 15.0887C9.31412 15.0887 9.61537 14.9639 9.83748 14.7418C10.0596 14.5197 10.1844 14.2184 10.1844 13.9043C10.1844 13.5902 10.0596 13.2889 9.83748 13.0668C9.61537 12.8447 9.31412 12.7199 9 12.7199C8.68588 12.7199 8.38463 12.8447 8.16252 13.0668C7.94041 13.2889 7.81562 13.5902 7.81562 13.9043Z" fill="#424D5B" stroke="#424D5B" stroke-width="0.4"/>
</svg>
