<svg width="24" height="24" viewBox="0 0 24 24" fill="none" xmlns="http://www.w3.org/2000/svg">
<path opacity="0.4" d="M7 4H13C14.6411 4 15.5788 4.32445 16.1272 4.87283C16.6755 5.42121 17 6.35885 17 8V16C17 17.6411 16.6755 18.5788 16.1272 19.1272C15.5788 19.6755 14.6411 20 13 20H7C5.44196 20 4.47766 19.4642 3.88867 18.7574C3.28036 18.0274 3 17.0267 3 16V8C3 6.35885 3.32445 5.42121 3.87283 4.87283C4.42121 4.32445 5.35885 4 7 4Z" fill="#54CC7C" stroke="#54CC7C" stroke-width="1.5"/>
<path d="M12.6291 9.50012C12.6291 10.1242 12.1232 10.6301 11.4991 10.6301C10.8751 10.6301 10.3691 10.1242 10.3691 9.50012C10.3691 8.87604 10.8751 8.37012 11.4991 8.37012C12.1232 8.37012 12.6291 8.87604 12.6291 9.50012Z" fill="#54CC7C" stroke="#54CC7C" stroke-width="1.5"/>
<path d="M19.6445 16.8485L19.6417 16.8465L18.5001 16.0443C18.5003 16.0298 18.5005 16.015 18.5005 16.0001V8.00011C18.5005 7.9852 18.5004 7.97044 18.5002 7.95585L19.6409 7.15429C19.641 7.1542 19.6412 7.15411 19.6413 7.15402C20.1228 6.81666 20.4932 6.7282 20.745 6.71828C21.0009 6.7082 21.1907 6.77726 21.3086 6.83764C21.4204 6.89493 21.5849 7.00821 21.7236 7.22364C21.8601 7.43563 22.0005 7.79092 22.0005 8.38011V15.6301C22.0005 16.2193 21.8601 16.5746 21.7236 16.7866C21.5849 17.002 21.4204 17.1153 21.3086 17.1726L21.3085 17.1725L21.3012 17.1764C21.2047 17.2272 21.0337 17.2901 20.8005 17.2901C20.5437 17.2901 20.153 17.2093 19.6445 16.8485Z" fill="#54CC7C" stroke="#54CC7C" stroke-width="1.5"/>
</svg>
